<?xml version="1.0" standalone="no"?>
<!DOCTYPE svg PUBLIC "-//W3C//DTD SVG 1.1//EN" "http://www.w3.org/Graphics/SVG/1.1/DTD/svg11.dtd" >
<svg>
<metadata>
Created by FontForge 20090622 at Thu May  4 16:35:25 2017
 By deploy user
(c) OurType, 2005. All rights reserved. SansaPro is a design by Fred Smeijers
</metadata>
<defs>
<font id="SansaPro-Light" horiz-adv-x="625" >
  <font-face 
    font-family="Sansa Pro Light"
    font-weight="300"
    font-stretch="normal"
    units-per-em="1000"
    panose-1="2 0 6 3 8 0 0 2 0 4"
    ascent="800"
    descent="-200"
    x-height="547"
    cap-height="750"
    bbox="-203 -219 1269 1031"
    underline-thickness="21"
    underline-position="-113"
    unicode-range="U+0020-U+FB02"
  />
<missing-glyph horiz-adv-x="500" 
d="M0 0v700h500v-700h-500zM250 395l170 255h-340zM280 350l170 -255v510zM80 50h340l-170 255zM50 605v-510l170 255z" />
    <glyph glyph-name="fi" unicode="fi" horiz-adv-x="570" 
d="M180 504v-504h-47v504h-102v43h102v39q0 79 42.5 121.5t121.5 42.5h55v-43h-55q-61 0 -89 -29.5t-28 -91.5v-39h304v-547h-47v504h-257zM484 672h-46v78h46v-78z" />
    <glyph glyph-name="fl" unicode="fl" horiz-adv-x="578" 
d="M297 707q-61 0 -89 -29.5t-28 -91.5v-39h156v-43h-156v-504h-47v504h-102v43h102v39q0 79 42.5 121.5t121.5 42.5h187v-750h-47v707h-140z" />
    <glyph glyph-name="f_f" unicode="ff" horiz-adv-x="641" 
d="M437 0v504h-257v-504h-47v504h-102v43h102v39q0 79 42.5 121.5t121.5 42.5h55v-43h-55q-61 0 -89 -29.5t-28 -91.5v-39h257v39q0 79 43 121.5t122 42.5h54v-43h-54q-61 0 -89.5 -29.5t-28.5 -91.5v-39h157v-43h-157v-504h-47z" />
    <glyph glyph-name="f_f_i" unicode="ffi" horiz-adv-x="883" 
d="M484 504v-504h-47v504h-257v-504h-47v504h-102v43h102v39q0 79 42.5 121.5t121.5 42.5h55v-43h-55q-61 0 -89 -29.5t-28 -91.5v-39h257v39q0 79 43 121.5t122 42.5h54v-43h-54q-61 0 -89.5 -29.5t-28.5 -91.5v-39h305v-547h-47v504h-258zM789 672h-46v78h46v-78z" />
    <glyph glyph-name="f_f_l" unicode="ffl" horiz-adv-x="863" 
d="M602 707q-61 0 -89.5 -29.5t-28.5 -91.5v-39h157v-43h-157v-504h-47v504h-257v-504h-47v504h-102v43h102v39q0 79 42.5 121.5t121.5 42.5h55v-43h-55q-61 0 -89 -29.5t-28 -91.5v-39h257v39q0 79 43 121.5t122 42.5h168v-750h-47v707h-121z" />
    <glyph glyph-name="f_t" unicode="ft" horiz-adv-x="684" 
d="M598 0q-91 0 -127.5 45.5t-36.5 142.5v316h-254v-504h-47v504h-102v43h102v39q0 79 42.5 121.5t121.5 42.5h55v-43h-55q-61 0 -89 -29.5t-28 -91.5v-39h254v125h46v-125h157v-43h-157v-332q0 -68 29.5 -98.5t95.5 -30.5h47v-43h-54z" />
    <glyph glyph-name="f_j" unicode="fj" horiz-adv-x="578" 
d="M258 -188v43h23q84 0 120 49.5t36 142.5v457h-257v-504h-47v504h-102v43h102v39q0 79 42.5 121.5t121.5 42.5h55v-43h-55q-61 0 -89 -29.5t-28 -91.5v-39h304v-484q0 -122 -47 -186.5t-156 -64.5h-23zM484 672h-47v78h47v-78z" />
    <glyph glyph-name="f_b" unicode="fb" horiz-adv-x="895" 
d="M437 0v707h-140q-61 0 -89 -29.5t-28 -91.5v-39h156v-43h-156v-504h-47v504h-102v43h102v39q0 79 42.5 121.5t121.5 42.5h187v-324l36 35q28 29 47 45t54.5 32.5t73.5 16.5q68 0 104.5 -47.5t36.5 -120.5v-133q0 -116 -73.5 -185t-192.5 -69h-133zM539 426l-55 -55v-328
h90q100 0 157.5 55t57.5 152v137q0 56 -25.5 90.5t-76.5 34.5q-39 0 -73 -22.5t-75 -63.5z" />
    <glyph glyph-name="f_h" unicode="fh" horiz-adv-x="922" 
d="M437 0v707h-140q-61 0 -89 -29.5t-28 -91.5v-39h156v-43h-156v-504h-47v504h-102v43h102v39q0 79 42.5 121.5t121.5 42.5h187v-324l39 39q25 24 40.5 37.5t52.5 33t71 19.5q141 0 141 -164v-391h-46v391q0 56 -24 88.5t-74 32.5q-27 0 -60 -19t-52 -36t-49 -47l-39 -39
v-371h-47z" />
    <glyph glyph-name="f_k" unicode="fk" horiz-adv-x="816" 
d="M437 0v707h-140q-61 0 -89 -29.5t-28 -91.5v-39h156v-43h-156v-504h-47v504h-102v43h102v39q0 79 42.5 121.5t121.5 42.5h187v-430h63l187 227h48v-8l-200 -238l211 -293v-8h-51l-199 277h-59v-277h-47z" />
    <glyph glyph-name=".notdef" horiz-adv-x="500" 
d="M0 0v700h500v-700h-500zM250 395l170 255h-340zM280 350l170 -255v510zM80 50h340l-170 255zM50 605v-510l170 255z" />
    <glyph glyph-name=".null" horiz-adv-x="0" 
 />
    <glyph glyph-name="nonmarkingreturn" horiz-adv-x="333" 
 />
    <glyph glyph-name="space" unicode=" " horiz-adv-x="266" 
 />
    <glyph glyph-name="exclam" unicode="!" horiz-adv-x="273" 
d="M121 219l-12 531h59l-12 -531h-35zM109 0v94h55v-94h-55z" />
    <glyph glyph-name="quotedbl" unicode="&#x22;" horiz-adv-x="445" 
d="M273 547l-7 203h54l-7 -203h-40zM102 547l-8 203h54l-7 -203h-39z" />
    <glyph glyph-name="numbersign" unicode="#" 
d="M176 0v191h-145v39h145v290h-145v39h145v191h39v-191h195v191h39v-191h145v-39h-145v-290h145v-39h-145v-191h-39v191h-195v-191h-39zM215 230h195v290h-195v-290z" />
    <glyph glyph-name="dollar" unicode="$" 
d="M309 757v110h50v-109q92 -4 157 -28v-46h-8q-86 27 -160 27h-16q-83 0 -131.5 -36.5t-48.5 -111.5q0 -101 106 -129l109 -32q82 -23 125 -70t43 -133q0 -96 -60 -150.5t-159 -56.5v-117h-50v117q-99 4 -176 31v51h8q31 -12 87 -23.5t92 -11.5h36q77 0 124 42.5t47 117.5
q0 116 -109 149l-109 31q-83 23 -123.5 64.5t-40.5 119.5q0 90 56.5 139t150.5 55z" />
    <glyph glyph-name="percent" unicode="%" horiz-adv-x="937" 
d="M243 320q-167 0 -167 217q0 218 167 218q166 0 166 -218q0 -217 -166 -217zM695 -4q-167 0 -167 217q0 218 167 218q82 0 124 -56t42 -162q0 -217 -166 -217zM695 36q59 0 88 41.5t29 135.5t-29 135.5t-88 41.5t-89 -42t-30 -135q0 -177 119 -177zM243 360q58 0 87.5 42
t29.5 135t-29.5 135t-87.5 42q-59 0 -89 -42t-30 -135q0 -177 119 -177zM266 0v12l375 738h31v-12l-375 -738h-31z" />
    <glyph glyph-name="ampersand" unicode="&#x26;" horiz-adv-x="656" 
d="M324 -8q-106 0 -168 60.5t-62 158.5q0 58 30 107.5t83 76.5q-41 20 -65.5 64.5t-24.5 95.5q0 86 66.5 144.5t156.5 58.5h8q96 0 160 -31v-47h-8q-64 31 -152 31h-8q-69 0 -120.5 -42t-51.5 -114q0 -52 32 -92.5t77 -40.5h332v-47h-89v-344q-96 -39 -196 -39zM324 39
q86 0 145 24v312h-172q-66 0 -109 -47.5t-43 -116.5q0 -80 49.5 -126t129.5 -46z" />
    <glyph glyph-name="quotesingle" unicode="'" horiz-adv-x="242" 
d="M102 547l-8 203h54l-7 -203h-39z" />
    <glyph glyph-name="parenleft" unicode="(" horiz-adv-x="297" 
d="M227 -125q-85 61 -132.5 172t-47.5 250v31q0 139 47.5 250t132.5 172h23v-16q-156 -136 -156 -406v-31q0 -270 156 -406v-16h-23z" />
    <glyph glyph-name="parenright" unicode=")" horiz-adv-x="297" 
d="M70 -125h-23v16q156 136 156 406v31q0 270 -156 406v16h23q85 -61 132.5 -172t47.5 -250v-31q0 -139 -47.5 -250t-132.5 -172z" />
    <glyph glyph-name="asterisk" unicode="*" horiz-adv-x="500" 
d="M227 502l-145 -83l-23 41l144 83l-144 83l23 41l145 -83v166h46v-166l145 83l23 -41l-144 -83l144 -83l-23 -41l-145 83v-166h-46v166z" />
    <glyph glyph-name="plus" unicode="+" 
d="M293 148v200h-199v39h199v199h39v-199h199v-39h-199v-200h-39z" />
    <glyph glyph-name="comma" unicode="," horiz-adv-x="273" 
d="M51 -125l58 219h55v-47l-82 -172h-31z" />
    <glyph glyph-name="hyphen" unicode="-" horiz-adv-x="406" 
d="M62 348v39h282v-39h-282z" />
    <glyph glyph-name="hyphen" unicode="&#xad;" horiz-adv-x="406" 
d="M62 348v39h282v-39h-282z" />
    <glyph glyph-name="period" unicode="." horiz-adv-x="273" 
d="M109 0v94h55v-94h-55z" />
    <glyph glyph-name="slash" unicode="/" horiz-adv-x="461" 
d="M31 -125v16l364 859h35v-16l-364 -859h-35z" />
    <glyph glyph-name="zero" unicode="0" 
d="M313 -8q-247 0 -247 383t247 383q122 0 184 -97t62 -286q0 -383 -246 -383zM313 39q97 0 146 79t49 257t-49 257t-146 79t-146.5 -79t-49.5 -257q0 -336 196 -336z" />
    <glyph glyph-name="one" unicode="1" 
d="M328 0v691l-203 -89h-8v46l235 102h27v-750h-51z" />
    <glyph glyph-name="two" unicode="2" 
d="M94 0v78q0 176 172 258l74 35q144 68 144 180q0 45 -14.5 76t-41.5 47t-57.5 22.5t-69.5 6.5h-176v47h176q116 0 175 -51t59 -148q0 -135 -191 -227l-74 -35q-129 -61 -129 -211v-31h398v-47h-445z" />
    <glyph glyph-name="three" unicode="3" 
d="M94 0v47h195q95 0 149 47t54 136q0 157 -183 157h-125v47h183q102 59 102 144q0 125 -168 125h-188v47h188q105 0 162 -44.5t57 -127.5q0 -100 -106 -160q129 -45 129 -188q0 -103 -69 -166.5t-185 -63.5h-195z" />
    <glyph glyph-name="four" unicode="4" 
d="M418 0v195h-367v39q165 226 199 516h51q-43 -294 -192 -508h309v250h51v-250h97v-47h-97v-195h-51z" />
    <glyph glyph-name="five" unicode="5" 
d="M98 0v47h175q101 0 152.5 51.5t51.5 147.5q0 168 -200 168h-164v336h395v-47h-344v-242h113q126 0 188 -58t62 -157q0 -46 -14.5 -88t-43 -78.5t-79.5 -58t-117 -21.5h-175z" />
    <glyph glyph-name="six" unicode="6" 
d="M313 -8q-219 0 -219 238v243q0 54 18 102.5t52.5 88t93 63t133.5 23.5h109v-47h-117q-116 0 -177 -64.5t-61 -185.5v-56q91 64 179 64q106 0 162.5 -58t56.5 -169q0 -64 -22.5 -117t-76 -89t-131.5 -36zM313 39q82 0 130.5 46.5t48.5 148.5q0 180 -168 180
q-89 0 -179 -63v-124q0 -188 168 -188z" />
    <glyph glyph-name="seven" unicode="7" 
d="M234 0v47q0 127 46 262.5t101.5 227t118.5 166.5h-437v47h500v-34q-278 -327 -278 -650v-66h-51z" />
    <glyph glyph-name="eight" unicode="8" 
d="M293 -8q-97 0 -154 50.5t-57 156.5q0 105 102 168l53 34l-3 1q-129 55 -129 172q0 94 59.5 139t140.5 45h27q82 0 136.5 -43.5t54.5 -136.5q0 -42 -12.5 -72.5t-30.5 -48t-54 -43.5l-40 -28l16 -7q66 -28 101.5 -69.5t35.5 -110.5q0 -98 -61.5 -152.5t-153.5 -54.5h-31z
M345 404l34 26q50 37 72 67t22 81q0 133 -149 133h-11q-157 0 -157 -137q0 -88 94 -129zM301 39h15q172 0 172 160q0 93 -101 137l-109 48l-48 -32q-23 -15 -33.5 -23.5t-28.5 -28t-26.5 -44.5t-8.5 -57q0 -160 168 -160z" />
    <glyph glyph-name="nine" unicode="9" 
d="M133 0v47h113q234 0 234 230v73q-88 -53 -175 -53q-105 0 -160 59t-55 167q0 102 56 168.5t167 66.5q108 0 163 -60t55 -175v-246q0 -55 -15.5 -103t-47 -88t-87.5 -63t-131 -23h-117zM305 344q94 0 175 52v131q0 184 -167 184q-81 0 -126.5 -42.5t-45.5 -145.5
q0 -179 164 -179z" />
    <glyph glyph-name="colon" unicode=":" horiz-adv-x="273" 
d="M109 453v94h55v-94h-55zM109 0v94h55v-94h-55z" />
    <glyph glyph-name="semicolon" unicode=";" horiz-adv-x="273" 
d="M109 453v94h55v-94h-55zM51 -125l58 219h55v-47l-82 -172h-31z" />
    <glyph glyph-name="less" unicode="&#x3c;" 
d="M523 125l-429 223v39l429 222h8v-43l-383 -199l383 -199v-43h-8z" />
    <glyph glyph-name="equal" unicode="=" 
d="M94 457v39h437v-39h-437zM94 238v39h437v-39h-437z" />
    <glyph glyph-name="greater" unicode="&#x3e;" 
d="M94 125v43l383 199l-383 199v43h8l429 -222v-39l-429 -223h-8z" />
    <glyph glyph-name="question" unicode="?" horiz-adv-x="434" 
d="M145 188v93l105 125q86 103 86 172q0 129 -137 129h-136v43h121q103 0 151 -43t48 -129q0 -84 -86 -183l-106 -122v-85h-46zM141 0v94h54v-94h-54z" />
    <glyph glyph-name="at" unicode="@" horiz-adv-x="930" 
d="M477 -102q-82 0 -154 25t-131.5 75t-94 135t-34.5 195q0 105 35 188.5t94 135.5t134 79t158 27q174 0 278.5 -95t104.5 -265q0 -106 -65 -174t-169 -68h-172q-72 0 -118 46t-46 126q0 85 53 136.5t127 51.5h132v-317h24q80 0 131.5 49t51.5 150q0 148 -87.5 232.5
t-244.5 84.5q-156 0 -263.5 -101.5t-107.5 -285.5q0 -177 100 -282t260 -105q97 0 179 24h8v-43q-70 -24 -183 -24zM457 199h102v274h-90q-53 0 -87 -40.5t-34 -104.5q0 -59 28.5 -94t80.5 -35z" />
    <glyph glyph-name="A" unicode="A" 
d="M31 0v8q27 112 86 312q32 110 84.5 244.5t79.5 185.5h63q27 -51 79.5 -185.5t84.5 -244.5q63 -214 86 -312v-8h-55q-34 142 -57 219h-340q-35 -128 -56 -219h-55zM172 320l-16 -54h313q0 1 -6.5 21.5t-9.5 32.5q-52 178 -140 383q-86 -197 -141 -383z" />
    <glyph glyph-name="B" unicode="B" horiz-adv-x="609" 
d="M94 0v750h246q90 0 136.5 -48t46.5 -139q0 -63 -22.5 -105t-74.5 -71q59 -26 86 -69.5t27 -110.5q0 -98 -50 -152.5t-145 -54.5h-250zM145 406h210q58 0 88 47t30 110q0 140 -125 140h-203v-297zM145 47h207q73 0 104.5 40t31.5 120q0 62 -35.5 107t-97.5 45h-210v-312z
" />
    <glyph glyph-name="C" unicode="C" horiz-adv-x="609" 
d="M359 -8q-152 0 -228 88.5t-76 247.5v94q0 157 83.5 246.5t236.5 89.5q51 0 102 -10t78 -25v-168h-47v136q-52 20 -133 20q-136 0 -203 -74.5t-67 -214.5v-94q0 -289 254 -289h32q72 0 148 31h8v-43q-76 -35 -156 -35h-32z" />
    <glyph glyph-name="D" unicode="D" horiz-adv-x="680" 
d="M94 0v750h211q158 0 235 -77t77 -235v-110q0 -153 -75.5 -240.5t-221.5 -87.5h-226zM145 47h183q238 0 238 281v110q0 133 -61.5 199t-191.5 66h-168v-656z" />
    <glyph glyph-name="E" unicode="E" horiz-adv-x="555" 
d="M270 0q-176 0 -176 172v578h398v-47h-347v-281h316v-47h-316v-207q0 -121 121 -121h226v-47h-222z" />
    <glyph glyph-name="F" unicode="F" horiz-adv-x="523" 
d="M94 0v578q0 172 176 172h207v-47h-211q-121 0 -121 -121v-160h316v-47h-316v-375h-51z" />
    <glyph glyph-name="G" unicode="G" horiz-adv-x="660" 
d="M375 0q-154 0 -237 86t-83 242v94q0 153 88.5 244.5t239.5 91.5q117 0 199 -35v-43h-8q-97 31 -191 31q-131 0 -204.5 -76.5t-73.5 -212.5v-94q0 -133 69.5 -207t200.5 -74h31q69 0 125 23v278h-172v47h223v-356q-30 -14 -82.5 -26.5t-93.5 -12.5h-31z" />
    <glyph glyph-name="H" unicode="H" horiz-adv-x="687" 
d="M94 0v750h51v-328h398v328h51v-750h-51v375h-398v-375h-51z" />
    <glyph glyph-name="I" unicode="I" horiz-adv-x="238" 
d="M94 0v750h51v-750h-51z" />
    <glyph glyph-name="J" unicode="J" horiz-adv-x="426" 
d="M47 0v47h98q70 0 103 45t33 123v488h-203v47h254v-531q0 -100 -48.5 -159.5t-142.5 -59.5h-94z" />
    <glyph glyph-name="K" unicode="K" horiz-adv-x="562" 
d="M94 0v750h51v-336h46l297 336h51v-8l-309 -347l317 -387v-8h-59l-300 367h-43v-367h-51z" />
    <glyph glyph-name="L" unicode="L" horiz-adv-x="492" 
d="M270 0q-176 0 -176 172v578h51v-582q0 -121 121 -121h211v-47h-207z" />
    <glyph glyph-name="M" unicode="M" horiz-adv-x="789" 
d="M94 0v750h35l266 -383l265 383h35v-750h-50v645l-243 -348h-15l-242 348v-645h-51z" />
    <glyph glyph-name="N" unicode="N" horiz-adv-x="668" 
d="M94 0v750h39l410 -641v641h51v-750h-39l-410 641v-641h-51z" />
    <glyph glyph-name="O" unicode="O" horiz-adv-x="687" 
d="M344 -8q-100 0 -166.5 49.5t-94.5 129.5t-28 188v32q0 108 28 188t94.5 129.5t166.5 49.5t166.5 -49.5t94.5 -129.5t28 -188v-32q0 -108 -28 -188t-94.5 -129.5t-166.5 -49.5zM344 39q238 0 238 320v32q0 320 -238 320q-239 0 -239 -320v-32q0 -320 239 -320z" />
    <glyph glyph-name="P" unicode="P" horiz-adv-x="578" 
d="M94 0v750h215q222 0 222 -230q0 -114 -58.5 -180.5t-167.5 -66.5h-160v-273h-51zM145 320h168q167 0 167 200q0 183 -156 183h-179v-383z" />
    <glyph glyph-name="Q" unicode="Q" horiz-adv-x="687" 
d="M453 -188q-133 0 -133 125v56q-136 9 -200.5 108t-64.5 258v32q0 108 28 188t94.5 129.5t166.5 49.5t166.5 -49.5t94.5 -129.5t28 -188v-32q0 -76 -15 -139t-45.5 -113t-82 -79.5t-119.5 -34.5v-56q0 -78 82 -78q52 0 102 20h8v-47q-53 -20 -110 -20zM344 39
q238 0 238 320v32q0 320 -238 320q-239 0 -239 -320v-32q0 -320 239 -320z" />
    <glyph glyph-name="R" unicode="R" horiz-adv-x="609" 
d="M94 0v750h234q107 0 155 -52.5t48 -162.5q0 -73 -38.5 -128t-105.5 -75q50 -47 102 -152t73 -172v-8h-54q-14 57 -69 163t-103 149h-191v-312h-51zM145 359h171q75 0 119.5 49.5t44.5 126.5q0 86 -32.5 127t-111.5 41h-191v-344z" />
    <glyph glyph-name="S" unicode="S" horiz-adv-x="551" 
d="M238 -8q-99 0 -187 31v51h8q31 -12 87 -23.5t92 -11.5h35q78 0 125 42.5t47 117.5q0 116 -109 149l-109 31q-83 23 -123.5 64.5t-40.5 119.5q0 95 64.5 145t169.5 50h12q93 0 168 -28v-46h-8q-86 27 -160 27h-16q-83 0 -131.5 -36.5t-48.5 -111.5q0 -101 106 -129
l109 -32q82 -23 125 -70t43 -133q0 -98 -62.5 -152.5t-163.5 -54.5h-32z" />
    <glyph glyph-name="T" unicode="T" horiz-adv-x="566" 
d="M266 0v703h-250v47h535v-47h-235v-703h-50z" />
    <glyph glyph-name="U" unicode="U" horiz-adv-x="672" 
d="M336 -8q-131 0 -190.5 62.5t-59.5 195.5v500h51v-516q0 -96 51 -145.5t148 -49.5t148 49.5t51 145.5v516h51v-500q0 -130 -61 -194t-189 -64z" />
    <glyph glyph-name="V" unicode="V" horiz-adv-x="594" 
d="M266 0q-76 126 -141.5 339.5t-93.5 402.5v8h51q39 -218 87.5 -380t127.5 -323q147 300 215 703h50v-8q-28 -185 -96 -401t-142 -341h-58z" />
    <glyph glyph-name="W" unicode="W" horiz-adv-x="875" 
d="M219 0q-62 149 -115 353t-73 389v8h51q64 -443 168 -703q124 304 164 703h47q50 -433 160 -703q110 276 172 703h51v-8q-27 -196 -79 -399.5t-113 -342.5h-62q-89 189 -152 539q-66 -359 -157 -539h-62z" />
    <glyph glyph-name="X" unicode="X" horiz-adv-x="562" 
d="M20 0v8l235 373l-232 361v8h55l207 -322l203 322h55v-8l-228 -361l240 -373v-8h-55l-215 334l-211 -334h-54z" />
    <glyph glyph-name="Y" unicode="Y" horiz-adv-x="562" 
d="M258 0v309l-235 433v8h51l211 -387l207 387h51v-8l-234 -433v-309h-51z" />
    <glyph glyph-name="Z" unicode="Z" horiz-adv-x="574" 
d="M47 0v39q95 127 226 337.5t176 326.5h-390v47h449v-39q-61 -150 -183 -345t-212 -319h414v-47h-480z" />
    <glyph glyph-name="bracketleft" unicode="[" horiz-adv-x="289" 
d="M94 -125v875h148v-43h-101v-789h101v-43h-148z" />
    <glyph glyph-name="backslash" unicode="\" horiz-adv-x="461" 
d="M430 -125h-35l-364 859v16h35l364 -859v-16z" />
    <glyph glyph-name="bracketright" unicode="]" horiz-adv-x="289" 
d="M195 -125h-148v43h101v789h-101v43h148v-875z" />
    <glyph glyph-name="asciicircum" unicode="^" 
d="M70 109v8l223 430h39l223 -430v-8h-43l-199 383l-200 -383h-43z" />
    <glyph glyph-name="underscore" unicode="_" 
d="M31 -39v39h563v-39h-563z" />
    <glyph glyph-name="grave" unicode="`" horiz-adv-x="160" 
d="M137 625l-137 141v15h62l98 -140v-16h-23z" />
    <glyph glyph-name="a" unicode="a" horiz-adv-x="551" 
d="M199 -8q-68 0 -104 47t-36 121v133q0 116 73.5 185t191.5 69h133v-547h-47v121l-35 -35q-30 -30 -48 -45.5t-54 -32t-74 -16.5zM355 121l55 55v328h-90q-99 0 -157 -55.5t-58 -151.5v-137q0 -56 26 -90.5t76 -34.5q40 0 74 22.5t74 63.5z" />
    <glyph glyph-name="b" unicode="b" horiz-adv-x="551" 
d="M94 0v750h47v-324l35 35q30 30 48 45.5t54 32t74 16.5q67 0 103.5 -47.5t36.5 -120.5v-133q0 -116 -73.5 -185t-191.5 -69h-133zM195 426l-54 -55v-328h89q100 0 157.5 55t57.5 152v137q0 56 -25.5 90.5t-75.5 34.5q-40 0 -74 -22.5t-75 -63.5z" />
    <glyph glyph-name="c" unicode="c" horiz-adv-x="469" 
d="M262 -8q-97 0 -150 53t-53 150v149q0 97 57 154t154 57q95 0 148 -35v-114h-47v86q-45 20 -101 20q-79 0 -122 -44.5t-43 -123.5v-149q0 -76 40.5 -118t116.5 -42q37 0 80 12t68 27h8v-39q-23 -17 -69.5 -30t-86.5 -13z" />
    <glyph glyph-name="d" unicode="d" horiz-adv-x="551" 
d="M199 -8q-68 0 -104 47t-36 121v133q0 116 73.5 185t191.5 69h86v203h47v-750h-47v121l-35 -35q-30 -30 -48 -45.5t-54 -32t-74 -16.5zM355 121l55 55v328h-90q-99 0 -157 -55.5t-58 -151.5v-137q0 -56 26 -90.5t76 -34.5q40 0 74 22.5t74 63.5z" />
    <glyph glyph-name="e" unicode="e" horiz-adv-x="500" 
d="M262 -8q-97 0 -150 53t-53 150v149q0 96 58.5 153.5t152.5 57.5q79 0 129 -39.5t50 -113.5q0 -70 -46 -107t-122 -37h-176v-63q0 -76 40.5 -118t116.5 -42q68 0 148 39h8v-39q-65 -43 -156 -43zM105 344v-43h180q117 0 117 101q0 54 -36.5 82t-95.5 28q-79 0 -122 -44.5
t-43 -123.5z" />
    <glyph glyph-name="f" unicode="f" horiz-adv-x="336" 
d="M133 0v504h-102v43h102v39q0 79 42.5 121.5t121.5 42.5h55v-43h-55q-61 0 -89 -29.5t-28 -91.5v-39h156v-43h-156v-504h-47z" />
    <glyph glyph-name="g" unicode="g" horiz-adv-x="551" 
d="M90 -188v43h113q104 0 155.5 57.5t51.5 165.5v16l-19 -12q-86 -51 -161 -51q-83 0 -127 50.5t-44 137.5v74q0 119 75 186.5t190 67.5h133v-465q0 -131 -65 -200.5t-193 -69.5h-109zM391 125l19 12v367h-90q-98 0 -156.5 -54.5t-58.5 -152.5v-78q0 -145 129 -145
q72 0 157 51z" />
    <glyph glyph-name="h" unicode="h" horiz-adv-x="578" 
d="M438 0v391q0 56 -24 88.5t-74 32.5q-27 0 -60 -19t-51 -35.5t-49 -47.5l-39 -39v-371h-47v750h47v-324l39 39q90 90 164 90q140 0 140 -164v-391h-46z" />
    <glyph glyph-name="i" unicode="i" horiz-adv-x="258" 
d="M164 672h-47v78h47v-78zM117 0v504h-101v43h148v-547h-47z" />
    <glyph glyph-name="j" unicode="j" horiz-adv-x="266" 
d="M172 672h-47v78h47v-78zM-55 -188v43h24q84 0 120 49.5t36 142.5v457h-102v43h149v-484q0 -122 -47 -186.5t-156 -64.5h-24z" />
    <glyph glyph-name="k" unicode="k" horiz-adv-x="473" 
d="M94 0v750h47v-430h62l188 227h47v-8l-200 -238l211 -293v-8h-51l-199 277h-58v-277h-47z" />
    <glyph glyph-name="l" unicode="l" horiz-adv-x="242" 
d="M102 0v707h-102v43h148v-750h-46z" />
    <glyph glyph-name="m" unicode="m" horiz-adv-x="922" 
d="M94 0v547h47v-121l39 39q90 90 164 90q125 0 138 -129h2l39 39q25 24 40.5 37.5t53 33t71.5 19.5q140 0 140 -164v-391h-47v391q0 121 -97 121q-27 0 -60 -19t-52 -36t-49 -47l-39 -39v-371h-46v391q0 56 -24 88.5t-74 32.5q-27 0 -60 -19t-51 -35.5t-49 -47.5l-39 -39
v-371h-47z" />
    <glyph glyph-name="n" unicode="n" horiz-adv-x="578" 
d="M94 0v547h47v-121l39 39q90 90 164 90q140 0 140 -164v-391h-47v391q0 121 -97 121q-27 0 -60 -19t-51 -35.5t-49 -47.5l-39 -39v-371h-47z" />
    <glyph glyph-name="o" unicode="o" horiz-adv-x="555" 
d="M277 -8q-114 0 -168 78t-54 207q0 127 55 202.5t167 75.5q115 0 169 -74.5t54 -203.5q0 -130 -53.5 -207.5t-169.5 -77.5zM277 35q93 0 134.5 66.5t41.5 175.5q0 235 -176 235q-175 0 -175 -235q0 -109 41 -175.5t134 -66.5z" />
    <glyph glyph-name="p" unicode="p" horiz-adv-x="551" 
d="M94 -188v735h47v-121l35 35q30 30 48 45.5t54 32t74 16.5q67 0 103.5 -47.5t36.5 -120.5v-133q0 -116 -73.5 -185t-191.5 -69h-86v-188h-47zM195 426l-54 -55v-328h89q100 0 157.5 55t57.5 152v137q0 56 -25.5 90.5t-75.5 34.5q-40 0 -74 -22.5t-75 -63.5z" />
    <glyph glyph-name="q" unicode="q" horiz-adv-x="551" 
d="M410 -188v309l-35 -35q-30 -30 -48 -45.5t-54 -32t-74 -16.5q-68 0 -104 47t-36 121v133q0 116 73.5 185t191.5 69h133v-735h-47zM355 121l55 55v328h-90q-99 0 -157 -55.5t-58 -151.5v-137q0 -56 26 -90.5t76 -34.5q40 0 74 22.5t74 63.5z" />
    <glyph glyph-name="r" unicode="r" horiz-adv-x="355" 
d="M94 0v547h47v-113l43 50q52 63 121 63h35v-47h-35q-56 0 -117 -70l-47 -55v-375h-47z" />
    <glyph glyph-name="s" unicode="s" horiz-adv-x="484" 
d="M223 -8q-89 0 -153 20v47h8q64 -24 145 -24q69 0 110.5 30t41.5 91q0 41 -21 62.5t-73 35.5l-78 19q-68 18 -100.5 45.5t-32.5 91.5q0 72 58 108.5t142 36.5q67 0 128 -16v-43h-7q-64 16 -121 16q-67 0 -110 -24t-43 -78q0 -39 20.5 -59t65.5 -31l78 -19q65 -17 103 -48
t38 -97q0 -79 -55.5 -121.5t-143.5 -42.5z" />
    <glyph glyph-name="t" unicode="t" horiz-adv-x="383" 
d="M352 0h-55q-91 0 -127.5 45.5t-36.5 142.5v316h-102v43h102v125h47v-125h156v-43h-156v-332q0 -68 29 -98.5t96 -30.5h47v-43z" />
    <glyph glyph-name="u" unicode="u" horiz-adv-x="574" 
d="M230 -8q-140 0 -140 164v391h47v-391q0 -121 97 -121q27 0 60 19t52 36t49 47l39 39v371h46v-547h-46v121l-39 -39q-25 -24 -40.5 -37.5t-53 -33t-71.5 -19.5z" />
    <glyph glyph-name="v" unicode="v" horiz-adv-x="484" 
d="M219 0q-37 37 -70 84t-63.5 132t-30.5 175v156h47v-156q0 -119 43.5 -209t96.5 -143q53 53 97 143t44 209v156h47v-156q0 -69 -17 -134t-46 -114.5t-53.5 -82.5t-51.5 -60h-43z" />
    <glyph glyph-name="w" unicode="w" horiz-adv-x="727" 
d="M191 0q-51 56 -93.5 160t-42.5 231v156h47v-156q0 -108 38 -209.5t79 -142.5q25 34 48 74.5t48 117.5t25 152v164h47v-164q0 -75 25 -152t48 -117.5t48 -74.5q41 41 79 142.5t38 209.5v156h47v-156q0 -126 -44 -230t-97 -161h-43q-32 32 -71.5 107t-53.5 139
q-13 -63 -53 -138.5t-72 -107.5h-47z" />
    <glyph glyph-name="x" unicode="x" horiz-adv-x="469" 
d="M23 0v8l185 268l-177 263v8h51l154 -230l159 230h50v-8l-181 -263l181 -268v-8h-50l-159 235l-162 -235h-51z" />
    <glyph glyph-name="y" unicode="y" horiz-adv-x="574" 
d="M137 -188v43h101q108 0 152 54t44 169v47l-12 -8q-30 -20 -77 -37t-91 -17q-80 0 -122 47.5t-42 131.5v305h47v-305q0 -69 29.5 -103t95.5 -34q39 0 84.5 17.5t75.5 37.5l12 8v379h46v-461q0 -137 -57 -205.5t-185 -68.5h-101z" />
    <glyph glyph-name="z" unicode="z" horiz-adv-x="500" 
d="M55 0v35q84 105 180 244.5t144 224.5h-309v43h368v-35q-36 -70 -145.5 -228.5t-175.5 -240.5h328v-43h-390z" />
    <glyph glyph-name="braceleft" unicode="{" horiz-adv-x="469" 
d="M359 -125q-96 0 -133.5 40.5t-37.5 131.5v125q0 110 -157 121v39q82 6 119.5 35.5t37.5 85.5v125q0 91 37.5 131.5t133.5 40.5h32v-43h-63q-51 0 -72.5 -30t-21.5 -91v-125q0 -68 -33 -101.5t-92 -46.5q61 -14 93 -46t32 -103v-125q0 -61 21.5 -91t72.5 -30h63v-43h-32z
" />
    <glyph glyph-name="bar" unicode="|" horiz-adv-x="273" 
d="M117 -188v1001h39v-1001h-39z" />
    <glyph glyph-name="braceright" unicode="}" horiz-adv-x="469" 
d="M109 -125h-31v43h63q51 0 72 30t21 91v125q0 70 32.5 102.5t92.5 46.5q-59 13 -92 46.5t-33 101.5v125q0 61 -21 91t-72 30h-63v43h31q97 0 134.5 -40.5t37.5 -131.5v-125q0 -56 37.5 -85.5t119.5 -35.5v-39q-157 -11 -157 -121v-125q0 -91 -37.5 -131.5t-134.5 -40.5z
" />
    <glyph glyph-name="asciitilde" unicode="~" 
d="M94 281v35q16 30 47 50.5t70 20.5q37 0 109 -33.5t98 -33.5q39 0 63 16.5t42 50.5h8v-35q-16 -30 -47 -50.5t-70 -20.5q-37 0 -109 33.5t-98 33.5q-63 0 -105 -67h-8z" />
    <glyph glyph-name="exclamdown" unicode="&#xa1;" horiz-adv-x="273" 
d="M156 531l12 -531h-59l12 531h35zM168 750v-94h-55v94h55z" />
    <glyph glyph-name="cent" unicode="&#xa2;" 
d="M355 758v109h51v-110q87 -5 145 -27v-46h-8q-86 27 -168 27q-136 0 -203 -74.5t-67 -214.5v-94q0 -289 254 -289h32q72 0 148 31h8v-43q-74 -34 -152 -35v-117h-51v117q-145 5 -217 93t-72 243v94q0 152 78 240.5t222 95.5z" />
    <glyph glyph-name="sterling" unicode="&#xa3;" 
d="M125 47q78 53 78 183v145h-109v47h109v94q0 112 58 173t169 61h117v-47h-117q-98 0 -137 -46.5t-39 -140.5v-94h246v-47h-246v-145q0 -134 -78 -183h371v-47h-484v47h62z" />
    <glyph glyph-name="currency" unicode="&#xa4;" horiz-adv-x="500" 
d="M256 534h1q70 0 115 -40l71 75l45 -46l-79 -71q35 -47 35 -118q0 -76 -35 -122l75 -74l-44 -44l-69 76q-45 -42 -117 -42q-71 0 -114 40l-67 -74l-43 44l72 70q-37 50 -37 121q0 73 39 123l-76 71l45 46l68 -76q48 41 115 41zM255 471h-1q-53 0 -85.5 -40.5t-32.5 -100.5
q0 -67 36.5 -103t81.5 -36q48 0 83.5 35.5t35.5 106.5q0 56 -31.5 97t-86.5 41z" />
    <glyph glyph-name="yen" unicode="&#xa5;" 
d="M340 203v-203h-51v203h-226v47h226v59l-234 433v8h50l211 -387l207 387h51v-8l-234 -433v-59h223v-47h-223z" />
    <glyph glyph-name="brokenbar" unicode="&#xa6;" horiz-adv-x="273" 
d="M117 406v407h39v-407h-39zM117 -188v407h39v-407h-39z" />
    <glyph glyph-name="section" unicode="&#xa7;" horiz-adv-x="531" 
d="M457 238l-258 184q-54 39 -79.5 78t-25.5 90q0 73 54.5 116.5t128.5 43.5h192v-51h-196q-51 0 -89.5 -26.5t-38.5 -82.5q0 -43 21.5 -71.5t67.5 -61.5l231 -164v-55h-8zM74 324l258 -183q55 -39 80.5 -78t25.5 -90q0 -73 -54.5 -117t-129.5 -44h-191v51h195q51 0 90 27
t39 83q0 41 -22.5 70.5t-67.5 61.5l-231 165v54h8z" />
    <glyph glyph-name="dieresis" unicode="&#xa8;" horiz-adv-x="297" 
d="M242 625v94h55v-94h-55zM0 625v94h55v-94h-55z" />
    <glyph glyph-name="copyright" unicode="&#xa9;" horiz-adv-x="844" 
d="M422 16q-162 0 -268.5 103.5t-106.5 263.5t106.5 263.5t268.5 103.5t268.5 -103.5t106.5 -263.5t-106.5 -263.5t-268.5 -103.5zM422 59q144 0 234 92t90 232q0 139 -90 231.5t-234 92.5t-234 -92.5t-90 -231.5q0 -140 90 -232t234 -92zM445 180q-91 0 -147 55t-56 148
q0 87 59 145t144 58q57 0 98 -16v-43q-41 16 -98 16q-69 0 -110.5 -44.5t-41.5 -115.5q0 -74 40 -117t112 -43q55 0 98 15v-43q-49 -15 -98 -15z" />
    <glyph glyph-name="ordfeminine" unicode="&#xaa;" horiz-adv-x="474" 
d="M171 323q-58 0 -90 36.5t-32 93.5v103q0 89 63.5 142.5t165.5 53.5h115v-423h-43v90q-9 -6 -28 -23q-28 -24 -42 -35t-45.5 -24.5t-63.5 -13.5zM178 360q54 0 126 64l46 43v248h-76q-84 0 -132.5 -41.5t-48.5 -114.5v-106q0 -42 21 -67.5t64 -25.5z" />
    <glyph glyph-name="guillemotleft" unicode="&#xab;" horiz-adv-x="586" 
d="M273 152l-211 160v47l211 161h8v-43l-172 -141l172 -141v-43h-8zM523 152l-211 160v47l211 161h8v-43l-172 -141l172 -141v-43h-8z" />
    <glyph glyph-name="logicalnot" unicode="&#xac;" 
d="M492 168v180h-398v39h437v-219h-39z" />
    <glyph glyph-name="registered" unicode="&#xae;" horiz-adv-x="844" 
d="M422 16q-162 0 -268.5 103.5t-106.5 263.5t106.5 263.5t268.5 103.5t268.5 -103.5t106.5 -263.5t-106.5 -263.5t-268.5 -103.5zM422 59q144 0 234 92t90 232q0 139 -90 231.5t-234 92.5t-234 -92.5t-90 -231.5q0 -140 90 -232t234 -92zM293 180v406h95q163 0 163 -125
q0 -81 -78 -117l90 -156v-8h-55l-78 144h-86v-144h-51zM344 367h70q37 0 61.5 24.5t24.5 69.5q0 39 -24.5 60.5t-61.5 21.5h-70v-176z" />
    <glyph glyph-name="macron" unicode="&#xaf;" horiz-adv-x="250" 
d="M0 625v39h250v-39h-250z" />
    <glyph glyph-name="macron" unicode="&#x2c9;" horiz-adv-x="250" 
d="M0 625v39h250v-39h-250z" />
    <glyph glyph-name="degree" unicode="&#xb0;" horiz-adv-x="412" 
d="M207 320q-167 0 -167 217q0 218 167 218q82 0 124 -55.5t42 -162.5q0 -217 -166 -217zM207 360q58 0 87.5 42t29.5 135t-29.5 135t-87.5 42q-59 0 -89 -42t-30 -135q0 -177 119 -177z" />
    <glyph glyph-name="plusminus" unicode="&#xb1;" 
d="M293 148v200h-199v39h199v199h39v-199h199v-39h-199v-200h-39zM94 -39v39h437v-39h-437z" />
    <glyph glyph-name="twosuperior" unicode="&#xb2;" horiz-adv-x="412" 
d="M57 324v51q0 100 117 147l48 20q88 35 88 92q0 75 -112 75h-121v41h121q160 0 160 -116q0 -82 -129 -132l-47 -19q-79 -29 -79 -108v-10h257v-41h-303z" />
    <glyph glyph-name="threesuperior" unicode="&#xb3;" horiz-adv-x="412" 
d="M57 324v41h133q60 0 92.5 23.5t32.5 69.5q0 78 -111 78h-89v41h125q60 31 60 72q0 60 -102 60h-128v41h128q72 0 111 -26t39 -75q0 -54 -57 -86q72 -29 72 -105q0 -60 -47 -97t-126 -37h-133z" />
    <glyph glyph-name="acute" unicode="&#xb4;" horiz-adv-x="160" 
d="M0 625v16l98 140h62v-15l-137 -141h-23z" />
    <glyph glyph-name="mu" unicode="&#xb5;" horiz-adv-x="574" 
d="M508 0h-47q-27 37 -27 121l-39 -39q-25 -24 -40.5 -37.5t-53 -33t-71.5 -19.5q-64 0 -97 47v-227h-43v735h47v-391q0 -121 97 -121q27 0 60 19t52 36t49 47l39 39v371h46v-422q0 -85 28 -125z" />
    <glyph glyph-name="mu" unicode="&#x3bc;" horiz-adv-x="574" 
d="M508 0h-47q-27 37 -27 121l-39 -39q-25 -24 -40.5 -37.5t-53 -33t-71.5 -19.5q-64 0 -97 47v-227h-43v735h47v-391q0 -121 97 -121q27 0 60 19t52 36t49 47l39 39v371h46v-422q0 -85 28 -125z" />
    <glyph glyph-name="paragraph" unicode="&#xb6;" horiz-adv-x="641" 
d="M512 -188v938h51v-938h-51zM375 -188v376h-62q-123 0 -202.5 73t-79.5 208t79.5 208t202.5 73h113v-938h-51z" />
    <glyph glyph-name="periodcentered" unicode="&#xb7;" horiz-adv-x="273" 
d="M109 313v93h55v-93h-55z" />
    <glyph glyph-name="periodcentered" unicode="&#x2219;" horiz-adv-x="273" 
d="M109 313v93h55v-93h-55z" />
    <glyph glyph-name="cedilla" unicode="&#xb8;" horiz-adv-x="199" 
d="M0 -188v40h109q55 0 55 50q0 17 -15.5 35t-35.5 28v12h24q26 -12 44 -35.5t18 -46.5q0 -38 -26 -60.5t-68 -22.5h-105z" />
    <glyph glyph-name="onesuperior" unicode="&#xb9;" horiz-adv-x="412" 
d="M208 324v374l-121 -45h-16v40l158 57h27v-426h-48z" />
    <glyph glyph-name="ordmasculine" unicode="&#xba;" horiz-adv-x="477" 
d="M237 323q-98 0 -145 60.5t-47 160.5q0 98 48 156t144 58q100 0 146.5 -57.5t46.5 -156.5q0 -101 -46 -161t-147 -60zM237 360q149 0 149 184q0 177 -149 177q-148 0 -148 -177q0 -184 148 -184z" />
    <glyph glyph-name="guillemotright" unicode="&#xbb;" horiz-adv-x="586" 
d="M312 520l211 -161v-47l-211 -160h-7v43l172 141l-172 141v43h7zM62 520l211 -161v-47l-211 -160h-7v43l172 141l-172 141v43h7z" />
    <glyph glyph-name="onequarter" unicode="&#xbc;" horiz-adv-x="938" 
d="M766 0v107h-238v32q110 127 130 287h48q-27 -160 -115 -278h175v136h47v-136h64v-41h-64v-107h-47zM266 0v12l375 738h31v-12l-375 -738h-31zM211 324v374l-121 -45h-16v40l157 57h28v-426h-48z" />
    <glyph glyph-name="onehalf" unicode="&#xbd;" horiz-adv-x="938" 
d="M545 0v51q0 100 117 147l48 20q88 35 88 92q0 75 -111 75h-122v41h122q160 0 160 -116q0 -82 -129 -132l-48 -19q-79 -29 -79 -108v-10h258v-41h-304zM266 0v12l375 738h31v-12l-375 -738h-31zM211 324v374l-121 -45h-16v40l157 57h28v-426h-48z" />
    <glyph glyph-name="threequarters" unicode="&#xbe;" horiz-adv-x="938" 
d="M48 324v41h134q59 0 92 23.5t33 69.5q0 78 -112 78h-89v41h125q60 31 60 72q0 60 -102 60h-127v41h127q72 0 111 -26t39 -75q0 -54 -57 -86q72 -29 72 -105q0 -60 -46.5 -97t-125.5 -37h-134zM766 0v107h-238v32q110 127 130 287h48q-27 -160 -115 -278h175v136h47v-136
h64v-41h-64v-107h-47zM266 0v12l375 738h31v-12l-375 -738h-31z" />
    <glyph glyph-name="questiondown" unicode="&#xbf;" horiz-adv-x="434" 
d="M293 563v-94l-105 -125q-86 -103 -86 -172q0 -129 136 -129h137v-43h-121q-104 0 -151.5 43t-47.5 129q0 85 86 183l105 122v86h47zM297 750v-94h-55v94h55z" />
    <glyph glyph-name="Agrave" unicode="&#xc0;" 
d="M31 0v8q27 112 86 312q32 110 84.5 244.5t79.5 185.5h63q27 -51 79.5 -185.5t84.5 -244.5q63 -214 86 -312v-8h-55q-34 142 -57 219h-340q-35 -128 -56 -219h-55zM172 320l-16 -54h313q0 1 -6.5 21.5t-9.5 32.5q-52 178 -140 383q-86 -197 -141 -383zM369 828l-137 141
v15h63l98 -140v-16h-24z" />
    <glyph glyph-name="Aacute" unicode="&#xc1;" 
d="M31 0v8q27 112 86 312q32 110 84.5 244.5t79.5 185.5h63q27 -51 79.5 -185.5t84.5 -244.5q63 -214 86 -312v-8h-55q-34 142 -57 219h-340q-35 -128 -56 -219h-55zM172 320l-16 -54h313q0 1 -6.5 21.5t-9.5 32.5q-52 178 -140 383q-86 -197 -141 -383zM232 828v16l98 140
h63v-15l-137 -141h-24z" />
    <glyph glyph-name="Acircumflex" unicode="&#xc2;" 
d="M31 0v8q27 112 86 312q32 110 84.5 244.5t79.5 185.5h63q27 -51 79.5 -185.5t84.5 -244.5q63 -214 86 -312v-8h-55q-34 142 -57 219h-340q-35 -128 -56 -219h-55zM172 320l-16 -54h313q0 1 -6.5 21.5t-9.5 32.5q-52 178 -140 383q-86 -197 -141 -383zM156 828v16l125 140
h63l125 -142v-14h-32l-125 129l-125 -129h-31z" />
    <glyph glyph-name="Atilde" unicode="&#xc3;" 
d="M31 0v8q27 112 86 312q32 110 84.5 244.5t79.5 185.5h63q27 -51 79.5 -185.5t84.5 -244.5q63 -214 86 -312v-8h-55q-34 142 -57 219h-340q-35 -128 -56 -219h-55zM172 320l-16 -54h313q0 1 -6.5 21.5t-9.5 32.5q-52 178 -140 383q-86 -197 -141 -383zM141 828v39
q42 78 97 78q30 0 82 -39t67 -39q17 0 34 12.5t27 25t25 34.5q3 4 4 6h7v-39q-43 -78 -97 -78q-27 0 -80 39t-69 39q-17 0 -34 -12.5t-27 -25t-25 -34.5q-3 -4 -4 -6h-7z" />
    <glyph glyph-name="Adieresis" unicode="&#xc4;" 
d="M31 0v8q27 112 86 312q32 110 84.5 244.5t79.5 185.5h63q27 -51 79.5 -185.5t84.5 -244.5q63 -214 86 -312v-8h-55q-34 142 -57 219h-340q-35 -128 -56 -219h-55zM172 320l-16 -54h313q0 1 -6.5 21.5t-9.5 32.5q-52 178 -140 383q-86 -197 -141 -383zM406 828v94h55v-94
h-55zM164 828v94h55v-94h-55z" />
    <glyph glyph-name="Aring" unicode="&#xc5;" 
d="M31 0v8q27 112 86 312q32 110 84.5 244.5t79.5 185.5h63q27 -51 79.5 -185.5t84.5 -244.5q63 -214 86 -312v-8h-55q-34 142 -57 219h-340q-35 -128 -56 -219h-55zM172 320l-16 -54h313q0 1 -6.5 21.5t-9.5 32.5q-52 178 -140 383q-86 -197 -141 -383zM312 828
q-53 0 -83 29.5t-30 72.5t30 72t83 29q54 0 84 -29t30 -72q0 -44 -30 -73t-84 -29zM312 852q40 0 61.5 21t21.5 57t-21.5 57t-61.5 21t-61 -21t-21 -57t21 -57t61 -21z" />
    <glyph glyph-name="AE" unicode="&#xc6;" horiz-adv-x="855" 
d="M133 219v1q-30 -110 -47 -220h-55v8q43 228 116.5 425.5t145.5 316.5h500v-47h-348v-281h317v-47h-317v-207q0 -121 121 -121h227v-47h-223q-175 0 -175 172v47h-262zM320 703q-94 -157 -174 -437h249v437h-75z" />
    <glyph glyph-name="Ccedilla" unicode="&#xc7;" horiz-adv-x="609" 
d="M359 -8q-152 0 -228 88.5t-76 247.5v94q0 157 83.5 246.5t236.5 89.5q51 0 102 -10t78 -25v-168h-47v136q-52 20 -133 20q-136 0 -203 -74.5t-67 -214.5v-94q0 -289 254 -289h32q72 0 148 31h8v-43q-76 -35 -156 -35h-32zM213 -188v40h109q55 0 55 50q0 17 -15.5 35
t-35.5 28v12h24q26 -12 44 -35.5t18 -46.5q0 -38 -26 -60.5t-68 -22.5h-105z" />
    <glyph glyph-name="Egrave" unicode="&#xc8;" horiz-adv-x="555" 
d="M270 0q-176 0 -176 172v578h398v-47h-347v-281h316v-47h-316v-207q0 -121 121 -121h226v-47h-222zM346 828l-137 141v15h62l98 -140v-16h-23z" />
    <glyph glyph-name="Eacute" unicode="&#xc9;" horiz-adv-x="555" 
d="M270 0q-176 0 -176 172v578h398v-47h-347v-281h316v-47h-316v-207q0 -121 121 -121h226v-47h-222zM217 828v16l97 140h63v-15l-137 -141h-23z" />
    <glyph glyph-name="Ecircumflex" unicode="&#xca;" horiz-adv-x="555" 
d="M270 0q-176 0 -176 172v578h398v-47h-347v-281h316v-47h-316v-207q0 -121 121 -121h226v-47h-222zM133 828v16l125 140h62l125 -142v-14h-31l-125 129l-125 -129h-31z" />
    <glyph glyph-name="Edieresis" unicode="&#xcb;" horiz-adv-x="555" 
d="M270 0q-176 0 -176 172v578h398v-47h-347v-281h316v-47h-316v-207q0 -121 121 -121h226v-47h-222zM383 828v94h54v-94h-54zM141 828v94h54v-94h-54z" />
    <glyph glyph-name="Igrave" unicode="&#xcc;" horiz-adv-x="238" 
d="M94 0v750h51v-750h-51zM176 828l-137 141v15h63l97 -140v-16h-23z" />
    <glyph glyph-name="Iacute" unicode="&#xcd;" horiz-adv-x="238" 
d="M94 0v750h51v-750h-51zM39 828v16l98 140h62v-15l-137 -141h-23z" />
    <glyph glyph-name="Icircumflex" unicode="&#xce;" horiz-adv-x="238" 
d="M94 0v750h51v-750h-51zM-37 828v16l125 140h62l125 -142v-14h-31l-125 129l-125 -129h-31z" />
    <glyph glyph-name="Idieresis" unicode="&#xcf;" horiz-adv-x="238" 
d="M94 0v750h51v-750h-51zM213 828v94h55v-94h-55zM-29 828v94h54v-94h-54z" />
    <glyph glyph-name="Eth" unicode="&#xd0;" horiz-adv-x="680" 
d="M94 0v395h-63v43h63v312h211q158 0 235 -77t77 -235v-110q0 -153 -75.5 -240.5t-221.5 -87.5h-226zM145 47h183q238 0 238 281v110q0 133 -61.5 199t-191.5 66h-168v-265h137v-43h-137v-348z" />
    <glyph glyph-name="Ntilde" unicode="&#xd1;" horiz-adv-x="668" 
d="M94 0v750h39l410 -641v641h51v-750h-39l-410 641v-641h-51zM162 828v39q45 78 98 78q29 0 81 -39t67 -39q18 0 36.5 14t28 27t25.5 37h8v-39q-46 -78 -98 -78q-27 0 -79.5 39t-68.5 39q-18 0 -36.5 -14t-28 -27t-25.5 -37h-8z" />
    <glyph glyph-name="Ograve" unicode="&#xd2;" horiz-adv-x="687" 
d="M344 -8q-100 0 -166.5 49.5t-94.5 129.5t-28 188v32q0 108 28 188t94.5 129.5t166.5 49.5t166.5 -49.5t94.5 -129.5t28 -188v-32q0 -108 -28 -188t-94.5 -129.5t-166.5 -49.5zM344 39q238 0 238 320v32q0 320 -238 320q-239 0 -239 -320v-32q0 -320 239 -320zM400 828
l-136 141v15h62l98 -140v-16h-24z" />
    <glyph glyph-name="Oacute" unicode="&#xd3;" horiz-adv-x="687" 
d="M344 -8q-100 0 -166.5 49.5t-94.5 129.5t-28 188v32q0 108 28 188t94.5 129.5t166.5 49.5t166.5 -49.5t94.5 -129.5t28 -188v-32q0 -108 -28 -188t-94.5 -129.5t-166.5 -49.5zM344 39q238 0 238 320v32q0 320 -238 320q-239 0 -239 -320v-32q0 -320 239 -320zM264 828v16
l97 140h63v-15l-137 -141h-23z" />
    <glyph glyph-name="Ocircumflex" unicode="&#xd4;" horiz-adv-x="687" 
d="M344 -8q-100 0 -166.5 49.5t-94.5 129.5t-28 188v32q0 108 28 188t94.5 129.5t166.5 49.5t166.5 -49.5t94.5 -129.5t28 -188v-32q0 -108 -28 -188t-94.5 -129.5t-166.5 -49.5zM344 39q238 0 238 320v32q0 320 -238 320q-239 0 -239 -320v-32q0 -320 239 -320zM187 828v16
l125 140h63l125 -142v-14h-31l-125 129l-125 -129h-32z" />
    <glyph glyph-name="Otilde" unicode="&#xd5;" horiz-adv-x="687" 
d="M344 -8q-100 0 -166.5 49.5t-94.5 129.5t-28 188v32q0 108 28 188t94.5 129.5t166.5 49.5t166.5 -49.5t94.5 -129.5t28 -188v-32q0 -108 -28 -188t-94.5 -129.5t-166.5 -49.5zM344 39q238 0 238 320v32q0 320 -238 320q-239 0 -239 -320v-32q0 -320 239 -320zM172 828v39
q16 29 41.5 53.5t56.5 24.5q29 0 81 -39t67 -39q17 0 34 12.5t27 25t25 34.5q3 4 4 6h8v-39q-46 -78 -98 -78q-28 0 -80 39t-68 39q-19 0 -37 -14t-27 -26.5l-26 -37.5h-8z" />
    <glyph glyph-name="Odieresis" unicode="&#xd6;" horiz-adv-x="687" 
d="M344 -8q-100 0 -166.5 49.5t-94.5 129.5t-28 188v32q0 108 28 188t94.5 129.5t166.5 49.5t166.5 -49.5t94.5 -129.5t28 -188v-32q0 -108 -28 -188t-94.5 -129.5t-166.5 -49.5zM344 39q238 0 238 320v32q0 320 -238 320q-239 0 -239 -320v-32q0 -320 239 -320zM437 828v94
h55v-94h-55zM195 828v94h55v-94h-55z" />
    <glyph glyph-name="multiply" unicode="&#xd7;" 
d="M172 198l-28 29l140 140l-140 141l28 28l141 -140l140 140l28 -28l-140 -141l140 -140l-28 -29l-140 141z" />
    <glyph glyph-name="Oslash" unicode="&#xd8;" horiz-adv-x="687" 
d="M55 0v12l65 89q-65 94 -65 258v32q0 108 28 188t94.5 129.5t166.5 49.5q126 0 199 -78l51 70h39v-12l-65 -89q65 -95 65 -258v-32q0 -108 -28 -188t-94.5 -129.5t-166.5 -49.5q-127 0 -199 77l-51 -69h-39zM105 359q0 -137 45 -217l364 498q-61 71 -170 71
q-239 0 -239 -320v-32zM344 39q238 0 238 320v32q0 136 -45 215l-363 -497q59 -70 170 -70z" />
    <glyph glyph-name="Ugrave" unicode="&#xd9;" horiz-adv-x="672" 
d="M336 -8q-131 0 -190.5 62.5t-59.5 195.5v500h51v-516q0 -96 51 -145.5t148 -49.5t148 49.5t51 145.5v516h51v-500q0 -130 -61 -194t-189 -64zM393 828l-137 141v15h62l98 -140v-16h-23z" />
    <glyph glyph-name="Uacute" unicode="&#xda;" horiz-adv-x="672" 
d="M336 -8q-131 0 -190.5 62.5t-59.5 195.5v500h51v-516q0 -96 51 -145.5t148 -49.5t148 49.5t51 145.5v516h51v-500q0 -130 -61 -194t-189 -64zM256 828v16l98 140h62v-15l-137 -141h-23z" />
    <glyph glyph-name="Ucircumflex" unicode="&#xdb;" horiz-adv-x="672" 
d="M336 -8q-131 0 -190.5 62.5t-59.5 195.5v500h51v-516q0 -96 51 -145.5t148 -49.5t148 49.5t51 145.5v516h51v-500q0 -130 -61 -194t-189 -64zM180 828v16l125 140h62l125 -142v-14h-31l-125 129l-125 -129h-31z" />
    <glyph glyph-name="Udieresis" unicode="&#xdc;" horiz-adv-x="672" 
d="M336 -8q-131 0 -190.5 62.5t-59.5 195.5v500h51v-516q0 -96 51 -145.5t148 -49.5t148 49.5t51 145.5v516h51v-500q0 -130 -61 -194t-189 -64zM430 828v94h54v-94h-54zM187 828v94h55v-94h-55z" />
    <glyph glyph-name="Yacute" unicode="&#xdd;" horiz-adv-x="562" 
d="M258 0v309l-235 433v8h51l211 -387l207 387h51v-8l-234 -433v-309h-51zM201 828v16l98 140h62v-15l-136 -141h-24z" />
    <glyph glyph-name="Thorn" unicode="&#xde;" horiz-adv-x="578" 
d="M94 0v750h51v-117h164q222 0 222 -231q0 -113 -58.5 -179.5t-167.5 -66.5h-160v-156h-51zM324 586h-179v-383h168q167 0 167 199q0 184 -156 184z" />
    <glyph glyph-name="germandbls" unicode="&#xdf;" horiz-adv-x="652" 
d="M414 -8q-81 0 -141 20v43h9q52 -20 136 -20q59 0 94 29t35 81q0 34 -19.5 55t-62.5 46l-55 31q-2 1 -11.5 6.5l-12 7t-11.5 7.5t-12 9t-10 9.5t-10 11.5t-7.5 13.5t-6.5 16.5t-3.5 18.5t-1.5 21.5q0 19 5 35t17 30t20 22t25.5 21t22.5 17q47 43 47 82q0 52 -37 77t-92 25
q-69 0 -110.5 -30.5t-41.5 -113.5v-563h-47v504h-102v43h102v19q0 89 54 136.5t145 47.5q69 0 122.5 -37t53.5 -96q0 -31 -11 -55t-21 -34.5t-39 -35.5q-3 -3 -18 -14.5t-23.5 -19.5t-16.5 -22.5t-8 -29.5q0 -10 1.5 -18.5l2.5 -14.5t6.5 -12.5t7 -9.5t10 -9.5l10.5 -8
t14 -9t14 -8.5l40 -23q4 -3 22.5 -13t27 -15.5t24 -18.5t23 -25.5t14 -32.5t6.5 -43q0 -65 -46.5 -109t-133.5 -44z" />
    <glyph glyph-name="agrave" unicode="&#xe0;" horiz-adv-x="551" 
d="M199 -8q-68 0 -104 47t-36 121v133q0 116 73.5 185t191.5 69h133v-547h-47v121l-35 -35q-30 -30 -48 -45.5t-54 -32t-74 -16.5zM355 121l55 55v328h-90q-99 0 -157 -55.5t-58 -151.5v-137q0 -56 26 -90.5t76 -34.5q40 0 74 22.5t74 63.5zM340 625l-137 141v15h63l97 -140
v-16h-23z" />
    <glyph glyph-name="aacute" unicode="&#xe1;" horiz-adv-x="551" 
d="M199 -8q-68 0 -104 47t-36 121v133q0 116 73.5 185t191.5 69h133v-547h-47v121l-35 -35q-30 -30 -48 -45.5t-54 -32t-74 -16.5zM355 121l55 55v328h-90q-99 0 -157 -55.5t-58 -151.5v-137q0 -56 26 -90.5t76 -34.5q40 0 74 22.5t74 63.5zM203 625v16l98 140h62v-15
l-136 -141h-24z" />
    <glyph glyph-name="acircumflex" unicode="&#xe2;" horiz-adv-x="551" 
d="M199 -8q-68 0 -104 47t-36 121v133q0 116 73.5 185t191.5 69h133v-547h-47v121l-35 -35q-30 -30 -48 -45.5t-54 -32t-74 -16.5zM355 121l55 55v328h-90q-99 0 -157 -55.5t-58 -151.5v-137q0 -56 26 -90.5t76 -34.5q40 0 74 22.5t74 63.5zM127 625v16l125 140h62l125 -142
v-14h-31l-125 129l-125 -129h-31z" />
    <glyph glyph-name="atilde" unicode="&#xe3;" horiz-adv-x="551" 
d="M199 -8q-68 0 -104 47t-36 121v133q0 116 73.5 185t191.5 69h133v-547h-47v121l-35 -35q-30 -30 -48 -45.5t-54 -32t-74 -16.5zM355 121l55 55v328h-90q-99 0 -157 -55.5t-58 -151.5v-137q0 -56 26 -90.5t76 -34.5q40 0 74 22.5t74 63.5zM111 625v39q46 78 98 78
q30 0 81.5 -39t66.5 -39q18 0 36.5 14t28 27t25.5 37h8v-39q-46 -78 -98 -78q-27 0 -79.5 39t-68.5 39q-17 0 -34 -12.5t-27 -25t-25 -34.5q-3 -4 -4 -6h-8z" />
    <glyph glyph-name="adieresis" unicode="&#xe4;" horiz-adv-x="551" 
d="M199 -8q-68 0 -104 47t-36 121v133q0 116 73.5 185t191.5 69h133v-547h-47v121l-35 -35q-30 -30 -48 -45.5t-54 -32t-74 -16.5zM355 121l55 55v328h-90q-99 0 -157 -55.5t-58 -151.5v-137q0 -56 26 -90.5t76 -34.5q40 0 74 22.5t74 63.5zM377 625v94h55v-94h-55zM135 625
v94h54v-94h-54z" />
    <glyph glyph-name="aring" unicode="&#xe5;" horiz-adv-x="551" 
d="M199 -8q-68 0 -104 47t-36 121v133q0 116 73.5 185t191.5 69h133v-547h-47v121l-35 -35q-30 -30 -48 -45.5t-54 -32t-74 -16.5zM355 121l55 55v328h-90q-99 0 -157 -55.5t-58 -151.5v-137q0 -56 26 -90.5t76 -34.5q40 0 74 22.5t74 63.5zM283 625q-53 0 -83 29.5
t-30 72.5t30 72t83 29t83 -29t30 -72t-30 -72.5t-83 -29.5zM283 648q40 0 61 21.5t21 57.5t-21 57t-61 21q-39 0 -60.5 -21.5t-21.5 -56.5q0 -36 21 -57.5t61 -21.5z" />
    <glyph glyph-name="ae" unicode="&#xe6;" horiz-adv-x="844" 
d="M613 -8q-78 0 -128 35.5t-67 100.5l-43 -42q-30 -30 -48 -45.5t-54 -32t-74 -16.5q-68 0 -104 47t-36 121v133q0 116 73.5 185t191.5 69h297q80 0 130 -39.5t50 -112.5q0 -71 -46 -108t-122 -37h-176v-55q0 -76 40.5 -118t115.5 -42q69 0 149 39h8v-39q-67 -43 -157 -43z
M355 121l55 55v160q0 110 74 168h-164q-99 0 -157 -55.5t-58 -151.5v-137q0 -56 26 -90.5t76 -34.5q40 0 74 22.5t74 63.5zM457 336v-43h180q58 0 87.5 24t29.5 78q0 53 -37 81t-96 28q-78 0 -121 -44.5t-43 -123.5z" />
    <glyph glyph-name="ccedilla" unicode="&#xe7;" horiz-adv-x="469" 
d="M262 -8q-97 0 -150 53t-53 150v149q0 97 57 154t154 57q95 0 148 -35v-114h-47v86q-45 20 -101 20q-79 0 -122 -44.5t-43 -123.5v-149q0 -76 40.5 -118t116.5 -42q37 0 80 12t68 27h8v-39q-23 -17 -69.5 -30t-86.5 -13zM127 -188v40h109q55 0 55 50q0 17 -15.5 35
t-35.5 28v12h24q26 -12 44 -35.5t18 -46.5q0 -38 -26 -60.5t-68 -22.5h-105z" />
    <glyph glyph-name="egrave" unicode="&#xe8;" horiz-adv-x="500" 
d="M262 -8q-97 0 -150 53t-53 150v149q0 96 58.5 153.5t152.5 57.5q79 0 129 -39.5t50 -113.5q0 -70 -46 -107t-122 -37h-176v-63q0 -76 40.5 -118t116.5 -42q68 0 148 39h8v-39q-65 -43 -156 -43zM105 344v-43h180q117 0 117 101q0 54 -36.5 82t-95.5 28q-79 0 -122 -44.5
t-43 -123.5zM311 625l-137 141v15h62l98 -140v-16h-23z" />
    <glyph glyph-name="eacute" unicode="&#xe9;" horiz-adv-x="500" 
d="M262 -8q-97 0 -150 53t-53 150v149q0 96 58.5 153.5t152.5 57.5q79 0 129 -39.5t50 -113.5q0 -70 -46 -107t-122 -37h-176v-63q0 -76 40.5 -118t116.5 -42q68 0 148 39h8v-39q-65 -43 -156 -43zM105 344v-43h180q117 0 117 101q0 54 -36.5 82t-95.5 28q-79 0 -122 -44.5
t-43 -123.5zM174 625v16l97 140h63v-15l-137 -141h-23z" />
    <glyph glyph-name="ecircumflex" unicode="&#xea;" horiz-adv-x="500" 
d="M262 -8q-97 0 -150 53t-53 150v149q0 96 58.5 153.5t152.5 57.5q79 0 129 -39.5t50 -113.5q0 -70 -46 -107t-122 -37h-176v-63q0 -76 40.5 -118t116.5 -42q68 0 148 39h8v-39q-65 -43 -156 -43zM105 344v-43h180q117 0 117 101q0 54 -36.5 82t-95.5 28q-79 0 -122 -44.5
t-43 -123.5zM98 625v16l125 140h62l125 -142v-14h-31l-125 129l-125 -129h-31z" />
    <glyph glyph-name="edieresis" unicode="&#xeb;" horiz-adv-x="500" 
d="M262 -8q-97 0 -150 53t-53 150v149q0 96 58.5 153.5t152.5 57.5q79 0 129 -39.5t50 -113.5q0 -70 -46 -107t-122 -37h-176v-63q0 -76 40.5 -118t116.5 -42q68 0 148 39h8v-39q-65 -43 -156 -43zM105 344v-43h180q117 0 117 101q0 54 -36.5 82t-95.5 28q-79 0 -122 -44.5
t-43 -123.5zM348 625v94h54v-94h-54zM105 625v94h55v-94h-55z" />
    <glyph glyph-name="igrave" unicode="&#xec;" horiz-adv-x="258" 
d="M117 0v504h-101v43h148v-547h-47zM178 625l-137 141v15h63l97 -140v-16h-23z" />
    <glyph glyph-name="iacute" unicode="&#xed;" horiz-adv-x="258" 
d="M117 0v504h-101v43h148v-547h-47zM49 625v16l97 140h63v-15l-137 -141h-23z" />
    <glyph glyph-name="icircumflex" unicode="&#xee;" horiz-adv-x="258" 
d="M117 0v504h-101v43h148v-547h-47zM-39 625v16l125 140h62l125 -142v-14h-31l-125 129l-125 -129h-31z" />
    <glyph glyph-name="idieresis" unicode="&#xef;" horiz-adv-x="258" 
d="M117 0v504h-101v43h148v-547h-47zM211 625v94h55v-94h-55zM-31 625v94h54v-94h-54z" />
    <glyph glyph-name="eth" unicode="&#xf0;" horiz-adv-x="551" 
d="M523 660h-66v-660h-47v121l-35 -35q-30 -30 -48 -45.5t-54 -32t-74 -16.5q-68 0 -104 47t-36 121v133q0 116 73.5 185t191.5 69h86v113h-125v35h125v55h47v-55h66v-35zM355 121l55 55v328h-90q-99 0 -157 -55.5t-58 -151.5v-137q0 -56 26 -90.5t76 -34.5q40 0 74 22.5
t74 63.5z" />
    <glyph glyph-name="ntilde" unicode="&#xf1;" horiz-adv-x="578" 
d="M94 0v547h47v-121l39 39q90 90 164 90q140 0 140 -164v-391h-47v391q0 121 -97 121q-27 0 -60 -19t-51 -35.5t-49 -47.5l-39 -39v-371h-47zM117 625v39q46 78 98 78q30 0 81.5 -39t66.5 -39q18 0 36.5 14t28 27t25.5 37h8v-39q-46 -78 -98 -78q-27 0 -80 39t-68 39
q-18 0 -36.5 -14t-28 -27t-25.5 -37h-8z" />
    <glyph glyph-name="ograve" unicode="&#xf2;" horiz-adv-x="555" 
d="M277 -8q-114 0 -168 78t-54 207q0 127 55 202.5t167 75.5q115 0 169 -74.5t54 -203.5q0 -130 -53.5 -207.5t-169.5 -77.5zM277 35q93 0 134.5 66.5t41.5 175.5q0 235 -176 235q-175 0 -175 -235q0 -109 41 -175.5t134 -66.5zM334 625l-137 141v15h63l97 -140v-16h-23z
" />
    <glyph glyph-name="oacute" unicode="&#xf3;" horiz-adv-x="555" 
d="M277 -8q-114 0 -168 78t-54 207q0 127 55 202.5t167 75.5q115 0 169 -74.5t54 -203.5q0 -130 -53.5 -207.5t-169.5 -77.5zM277 35q93 0 134.5 66.5t41.5 175.5q0 235 -176 235q-175 0 -175 -235q0 -109 41 -175.5t134 -66.5zM197 625v16l98 140h62v-15l-136 -141h-24z
" />
    <glyph glyph-name="ocircumflex" unicode="&#xf4;" horiz-adv-x="555" 
d="M277 -8q-114 0 -168 78t-54 207q0 127 55 202.5t167 75.5q115 0 169 -74.5t54 -203.5q0 -130 -53.5 -207.5t-169.5 -77.5zM277 35q93 0 134.5 66.5t41.5 175.5q0 235 -176 235q-175 0 -175 -235q0 -109 41 -175.5t134 -66.5zM121 625v16l125 140h63l125 -142v-14h-32
l-125 129l-125 -129h-31z" />
    <glyph glyph-name="otilde" unicode="&#xf5;" horiz-adv-x="555" 
d="M277 -8q-114 0 -168 78t-54 207q0 127 55 202.5t167 75.5q115 0 169 -74.5t54 -203.5q0 -130 -53.5 -207.5t-169.5 -77.5zM277 35q93 0 134.5 66.5t41.5 175.5q0 235 -176 235q-175 0 -175 -235q0 -109 41 -175.5t134 -66.5zM105 625v39q46 78 98 78q30 0 81.5 -39
t67.5 -39q18 0 36.5 14t27 26t25.5 38h8v-39q-43 -78 -97 -78q-28 0 -81 39t-68 39q-17 0 -34 -12.5t-27 -25t-25 -34.5q-3 -4 -4 -6h-8z" />
    <glyph glyph-name="odieresis" unicode="&#xf6;" horiz-adv-x="555" 
d="M277 -8q-114 0 -168 78t-54 207q0 127 55 202.5t167 75.5q115 0 169 -74.5t54 -203.5q0 -130 -53.5 -207.5t-169.5 -77.5zM277 35q93 0 134.5 66.5t41.5 175.5q0 235 -176 235q-175 0 -175 -235q0 -109 41 -175.5t134 -66.5zM371 625v94h55v-94h-55zM129 625v94h55v-94
h-55z" />
    <glyph glyph-name="divide" unicode="&#xf7;" 
d="M293 488v39h39v-39h-39zM94 348v39h437v-39h-437zM293 207v39h39v-39h-39z" />
    <glyph glyph-name="oslash" unicode="&#xf8;" horiz-adv-x="555" 
d="M55 0v12l49 65q-49 74 -49 200q0 127 55 202.5t167 75.5q94 0 150 -54l34 46h39v-12l-48 -63q48 -71 48 -195q0 -130 -53.5 -207.5t-169.5 -77.5q-92 0 -148 54l-35 -46h-39zM102 277q0 -101 32 -161l265 349q-45 47 -122 47q-175 0 -175 -235zM277 35q93 0 134.5 66.5
t41.5 175.5q0 97 -31 155l-265 -349q43 -48 120 -48z" />
    <glyph glyph-name="ugrave" unicode="&#xf9;" horiz-adv-x="574" 
d="M230 -8q-140 0 -140 164v391h47v-391q0 -121 97 -121q27 0 60 19t52 36t49 47l39 39v371h46v-547h-46v121l-39 -39q-25 -24 -40.5 -37.5t-53 -33t-71.5 -19.5zM344 625l-137 141v15h63l97 -140v-16h-23z" />
    <glyph glyph-name="uacute" unicode="&#xfa;" horiz-adv-x="574" 
d="M230 -8q-140 0 -140 164v391h47v-391q0 -121 97 -121q27 0 60 19t52 36t49 47l39 39v371h46v-547h-46v121l-39 -39q-25 -24 -40.5 -37.5t-53 -33t-71.5 -19.5zM207 625v16l98 140h62v-15l-137 -141h-23z" />
    <glyph glyph-name="ucircumflex" unicode="&#xfb;" horiz-adv-x="574" 
d="M230 -8q-140 0 -140 164v391h47v-391q0 -121 97 -121q27 0 60 19t52 36t49 47l39 39v371h46v-547h-46v121l-39 -39q-25 -24 -40.5 -37.5t-53 -33t-71.5 -19.5zM131 625v16l125 140h62l125 -142v-14h-31l-125 129l-125 -129h-31z" />
    <glyph glyph-name="udieresis" unicode="&#xfc;" horiz-adv-x="574" 
d="M230 -8q-140 0 -140 164v391h47v-391q0 -121 97 -121q27 0 60 19t52 36t49 47l39 39v371h46v-547h-46v121l-39 -39q-25 -24 -40.5 -37.5t-53 -33t-71.5 -19.5zM381 625v94h55v-94h-55zM139 625v94h54v-94h-54z" />
    <glyph glyph-name="yacute" unicode="&#xfd;" horiz-adv-x="574" 
d="M137 -188v43h101q108 0 152 54t44 169v47l-12 -8q-30 -20 -77 -37t-91 -17q-80 0 -122 47.5t-42 131.5v305h47v-305q0 -69 29.5 -103t95.5 -34q39 0 84.5 17.5t75.5 37.5l12 8v379h46v-461q0 -137 -57 -205.5t-185 -68.5h-101zM207 625v16l98 140h62v-15l-137 -141h-23z
" />
    <glyph glyph-name="thorn" unicode="&#xfe;" horiz-adv-x="551" 
d="M94 -188v938h47v-324l35 35q30 30 48 45.5t54 32t74 16.5q67 0 103.5 -47.5t36.5 -120.5v-133q0 -116 -73.5 -185t-191.5 -69h-86v-188h-47zM195 426l-54 -55v-328h89q100 0 157.5 55t57.5 152v137q0 56 -25.5 90.5t-75.5 34.5q-40 0 -74 -22.5t-75 -63.5z" />
    <glyph glyph-name="ydieresis" unicode="&#xff;" horiz-adv-x="574" 
d="M137 -188v43h101q108 0 152 54t44 169v47l-12 -8q-30 -20 -77 -37t-91 -17q-80 0 -122 47.5t-42 131.5v305h47v-305q0 -69 29.5 -103t95.5 -34q39 0 84.5 17.5t75.5 37.5l12 8v379h46v-461q0 -137 -57 -205.5t-185 -68.5h-101zM381 625v94h55v-94h-55zM139 625v94h54v-94
h-54z" />
    <glyph glyph-name="Amacron" unicode="&#x100;" 
d="M31 0v8q27 112 86 312q32 110 84.5 244.5t79.5 185.5h63q27 -51 79.5 -185.5t84.5 -244.5q63 -214 86 -312v-8h-55q-34 142 -57 219h-340q-35 -128 -56 -219h-55zM172 320l-16 -54h313q0 1 -6.5 21.5t-9.5 32.5q-52 178 -140 383q-86 -197 -141 -383zM187 828v39h250v-39
h-250z" />
    <glyph glyph-name="amacron" unicode="&#x101;" horiz-adv-x="551" 
d="M199 -8q-68 0 -104 47t-36 121v133q0 116 73.5 185t191.5 69h133v-547h-47v121l-35 -35q-30 -30 -48 -45.5t-54 -32t-74 -16.5zM355 121l55 55v328h-90q-99 0 -157 -55.5t-58 -151.5v-137q0 -56 26 -90.5t76 -34.5q40 0 74 22.5t74 63.5zM162 625v39h250v-39h-250z" />
    <glyph glyph-name="Abreve" unicode="&#x102;" 
d="M31 0v8q27 112 86 312q32 110 84.5 244.5t79.5 185.5h63q27 -51 79.5 -185.5t84.5 -244.5q63 -214 86 -312v-8h-55q-34 142 -57 219h-340q-35 -128 -56 -219h-55zM172 320l-16 -54h313q0 1 -6.5 21.5t-9.5 32.5q-52 178 -140 383q-86 -197 -141 -383zM312 828
q-72 0 -112 41t-40 100h31q0 -44 34.5 -73t86.5 -29q53 0 87.5 29t34.5 73h31q0 -59 -40 -100t-113 -41z" />
    <glyph glyph-name="abreve" unicode="&#x103;" horiz-adv-x="551" 
d="M199 -8q-68 0 -104 47t-36 121v133q0 116 73.5 185t191.5 69h133v-547h-47v121l-35 -35q-30 -30 -48 -45.5t-54 -32t-74 -16.5zM355 121l55 55v328h-90q-99 0 -157 -55.5t-58 -151.5v-137q0 -56 26 -90.5t76 -34.5q40 0 74 22.5t74 63.5zM287 625q-72 0 -112 40.5
t-40 100.5h31q0 -44 34.5 -73t86.5 -29t86.5 29t34.5 73h31q0 -60 -39.5 -100.5t-112.5 -40.5z" />
    <glyph glyph-name="Aogonek" unicode="&#x104;" 
d="M31 0v8q27 112 86 312q32 110 84.5 244.5t79.5 185.5h63q27 -51 79.5 -185.5t84.5 -244.5q63 -214 86 -312v-8h-55q-34 142 -57 219h-340q-35 -128 -56 -219h-55zM172 320l-16 -54h313q0 1 -6.5 21.5t-9.5 32.5q-52 178 -140 383q-86 -197 -141 -383zM695 -188h-105
q-43 0 -68.5 21.5t-25.5 61.5q0 23 18 46.5t45 35.5h23v-12q-19 -10 -35 -28t-16 -35q0 -50 56 -50h108v-40z" />
    <glyph glyph-name="aogonek" unicode="&#x105;" horiz-adv-x="551" 
d="M199 -8q-68 0 -104 47t-36 121v133q0 116 73.5 185t191.5 69h133v-547h-47v121l-35 -35q-30 -30 -48 -45.5t-54 -32t-74 -16.5zM355 121l55 55v328h-90q-99 0 -157 -55.5t-58 -151.5v-137q0 -56 26 -90.5t76 -34.5q40 0 74 22.5t74 63.5zM562 -188h-105q-43 0 -68.5 21.5
t-25.5 61.5q0 23 18 46.5t45 35.5h23v-12q-19 -10 -35 -28t-16 -35q0 -50 56 -50h108v-40z" />
    <glyph glyph-name="Cacute" unicode="&#x106;" horiz-adv-x="609" 
d="M359 -8q-152 0 -228 88.5t-76 247.5v94q0 157 83.5 246.5t236.5 89.5q51 0 102 -10t78 -25v-168h-47v136q-52 20 -133 20q-136 0 -203 -74.5t-67 -214.5v-94q0 -289 254 -289h32q72 0 148 31h8v-43q-76 -35 -156 -35h-32zM291 828v16l98 140h62v-15l-137 -141h-23z" />
    <glyph glyph-name="cacute" unicode="&#x107;" horiz-adv-x="469" 
d="M262 -8q-97 0 -150 53t-53 150v149q0 97 57 154t154 57q95 0 148 -35v-114h-47v86q-45 20 -101 20q-79 0 -122 -44.5t-43 -123.5v-149q0 -76 40.5 -118t116.5 -42q37 0 80 12t68 27h8v-39q-23 -17 -69.5 -30t-86.5 -13zM193 625v16l98 140h63v-15l-137 -141h-24z" />
    <glyph glyph-name="Ccircumflex" unicode="&#x108;" horiz-adv-x="609" 
d="M359 -8q-152 0 -228 88.5t-76 247.5v94q0 157 83.5 246.5t236.5 89.5q51 0 102 -10t78 -25v-168h-47v136q-52 20 -133 20q-136 0 -203 -74.5t-67 -214.5v-94q0 -289 254 -289h32q72 0 148 31h8v-43q-76 -35 -156 -35h-32zM199 828v16l125 140h63l125 -142v-14h-32
l-125 129l-125 -129h-31z" />
    <glyph glyph-name="ccircumflex" unicode="&#x109;" horiz-adv-x="469" 
d="M262 -8q-97 0 -150 53t-53 150v149q0 97 57 154t154 57q95 0 148 -35v-114h-47v86q-45 20 -101 20q-79 0 -122 -44.5t-43 -123.5v-149q0 -76 40.5 -118t116.5 -42q37 0 80 12t68 27h8v-39q-23 -17 -69.5 -30t-86.5 -13zM109 625v16l125 140h63l125 -142v-14h-31l-125 129
l-125 -129h-32z" />
    <glyph glyph-name="Cdotaccent" unicode="&#x10a;" horiz-adv-x="609" 
d="M359 -8q-152 0 -228 88.5t-76 247.5v94q0 157 83.5 246.5t236.5 89.5q51 0 102 -10t78 -25v-168h-47v136q-52 20 -133 20q-136 0 -203 -74.5t-67 -214.5v-94q0 -289 254 -289h32q72 0 148 31h8v-43q-76 -35 -156 -35h-32zM332 828v94h55v-94h-55z" />
    <glyph glyph-name="cdotaccent" unicode="&#x10b;" horiz-adv-x="469" 
d="M262 -8q-97 0 -150 53t-53 150v149q0 97 57 154t154 57q95 0 148 -35v-114h-47v86q-45 20 -101 20q-79 0 -122 -44.5t-43 -123.5v-149q0 -76 40.5 -118t116.5 -42q37 0 80 12t68 27h8v-39q-23 -17 -69.5 -30t-86.5 -13zM234 625v94h55v-94h-55z" />
    <glyph glyph-name="Ccaron" unicode="&#x10c;" horiz-adv-x="609" 
d="M359 -8q-152 0 -228 88.5t-76 247.5v94q0 157 83.5 246.5t236.5 89.5q51 0 102 -10t78 -25v-168h-47v136q-52 20 -133 20q-136 0 -203 -74.5t-67 -214.5v-94q0 -289 254 -289h32q72 0 148 31h8v-43q-76 -35 -156 -35h-32zM191 984h32l125 -129l125 129h31v-13l-125 -143
h-63l-125 141v15z" />
    <glyph glyph-name="ccaron" unicode="&#x10d;" horiz-adv-x="469" 
d="M262 -8q-97 0 -150 53t-53 150v149q0 97 57 154t154 57q95 0 148 -35v-114h-47v86q-45 20 -101 20q-79 0 -122 -44.5t-43 -123.5v-149q0 -76 40.5 -118t116.5 -42q37 0 80 12t68 27h8v-39q-23 -17 -69.5 -30t-86.5 -13zM98 781h31l125 -129l125 129h31v-13l-125 -143h-62
l-125 141v15z" />
    <glyph glyph-name="Dcaron" unicode="&#x10e;" horiz-adv-x="680" 
d="M94 0v750h211q158 0 235 -77t77 -235v-110q0 -153 -75.5 -240.5t-221.5 -87.5h-226zM145 47h183q238 0 238 281v110q0 133 -61.5 199t-191.5 66h-168v-656zM152 984h32l125 -129l125 129h31v-13l-125 -143h-63l-125 141v15z" />
    <glyph glyph-name="dcaron" unicode="&#x10f;" horiz-adv-x="551" 
d="M199 -8q-68 0 -104 47t-36 121v133q0 116 73.5 185t191.5 69h86v203h47v-750h-47v121l-35 -35q-30 -30 -48 -45.5t-54 -32t-74 -16.5zM355 121l55 55v328h-90q-99 0 -157 -55.5t-58 -151.5v-137q0 -56 26 -90.5t76 -34.5q40 0 74 22.5t74 63.5zM512 594l43 156h47v-47
l-63 -109h-27z" />
    <glyph glyph-name="Dcroat" unicode="&#x110;" horiz-adv-x="680" 
d="M94 0v395h-63v43h63v312h211q158 0 235 -77t77 -235v-110q0 -153 -75.5 -240.5t-221.5 -87.5h-226zM145 47h183q238 0 238 281v110q0 133 -61.5 199t-191.5 66h-168v-265h137v-43h-137v-348z" />
    <glyph glyph-name="dcroat" unicode="&#x111;" horiz-adv-x="551" 
d="M523 660h-66v-660h-47v121l-35 -35q-30 -30 -48 -45.5t-54 -32t-74 -16.5q-68 0 -104 47t-36 121v133q0 116 73.5 185t191.5 69h86v113h-125v35h125v55h47v-55h66v-35zM355 121l55 55v328h-90q-99 0 -157 -55.5t-58 -151.5v-137q0 -56 26 -90.5t76 -34.5q40 0 74 22.5
t74 63.5z" />
    <glyph glyph-name="Emacron" unicode="&#x112;" horiz-adv-x="555" 
d="M270 0q-176 0 -176 172v578h398v-47h-347v-281h316v-47h-316v-207q0 -121 121 -121h226v-47h-222zM164 828v39h250v-39h-250z" />
    <glyph glyph-name="emacron" unicode="&#x113;" horiz-adv-x="500" 
d="M262 -8q-97 0 -150 53t-53 150v149q0 96 58.5 153.5t152.5 57.5q79 0 129 -39.5t50 -113.5q0 -70 -46 -107t-122 -37h-176v-63q0 -76 40.5 -118t116.5 -42q68 0 148 39h8v-39q-65 -43 -156 -43zM105 344v-43h180q117 0 117 101q0 54 -36.5 82t-95.5 28q-79 0 -122 -44.5
t-43 -123.5zM129 625v39h250v-39h-250z" />
    <glyph glyph-name="Ebreve" unicode="&#x114;" horiz-adv-x="555" 
d="M270 0q-176 0 -176 172v578h398v-47h-347v-281h316v-47h-316v-207q0 -121 121 -121h226v-47h-222zM289 828q-73 0 -112.5 41t-39.5 100h31q0 -44 34.5 -73t86.5 -29t86.5 29t34.5 73h31q0 -59 -39.5 -100t-112.5 -41z" />
    <glyph glyph-name="ebreve" unicode="&#x115;" horiz-adv-x="500" 
d="M262 -8q-97 0 -150 53t-53 150v149q0 96 58.5 153.5t152.5 57.5q79 0 129 -39.5t50 -113.5q0 -70 -46 -107t-122 -37h-176v-63q0 -76 40.5 -118t116.5 -42q68 0 148 39h8v-39q-65 -43 -156 -43zM105 344v-43h180q117 0 117 101q0 54 -36.5 82t-95.5 28q-79 0 -122 -44.5
t-43 -123.5zM258 625q-73 0 -113 40.5t-40 100.5h32q0 -44 34 -73t87 -29q52 0 86.5 29t34.5 73h31q0 -60 -40 -100.5t-112 -40.5z" />
    <glyph glyph-name="Edotaccent" unicode="&#x116;" horiz-adv-x="555" 
d="M270 0q-176 0 -176 172v578h398v-47h-347v-281h316v-47h-316v-207q0 -121 121 -121h226v-47h-222zM262 828v94h54v-94h-54z" />
    <glyph glyph-name="edotaccent" unicode="&#x117;" horiz-adv-x="500" 
d="M262 -8q-97 0 -150 53t-53 150v149q0 96 58.5 153.5t152.5 57.5q79 0 129 -39.5t50 -113.5q0 -70 -46 -107t-122 -37h-176v-63q0 -76 40.5 -118t116.5 -42q68 0 148 39h8v-39q-65 -43 -156 -43zM105 344v-43h180q117 0 117 101q0 54 -36.5 82t-95.5 28q-79 0 -122 -44.5
t-43 -123.5zM227 625v94h54v-94h-54z" />
    <glyph glyph-name="Eogonek" unicode="&#x118;" horiz-adv-x="555" 
d="M270 0q-176 0 -176 172v578h398v-47h-347v-281h316v-47h-316v-207q0 -121 121 -121h226v-47h-222zM570 -188h-105q-43 0 -68.5 21.5t-25.5 61.5q0 23 18 46.5t45 35.5h23v-12q-19 -10 -35 -28t-16 -35q0 -50 56 -50h108v-40z" />
    <glyph glyph-name="eogonek" unicode="&#x119;" horiz-adv-x="500" 
d="M262 -8q-97 0 -150 53t-53 150v149q0 96 58.5 153.5t152.5 57.5q79 0 129 -39.5t50 -113.5q0 -70 -46 -107t-122 -37h-176v-63q0 -76 40.5 -118t116.5 -42q68 0 148 39h8v-39q-65 -43 -156 -43zM105 344v-43h180q117 0 117 101q0 54 -36.5 82t-95.5 28q-79 0 -122 -44.5
t-43 -123.5zM383 -188h-106q-42 0 -67.5 21.5t-25.5 61.5q0 23 18 46.5t44 35.5h24v-12q-20 -10 -35.5 -28t-15.5 -35q0 -50 55 -50h109v-40z" />
    <glyph glyph-name="Ecaron" unicode="&#x11a;" horiz-adv-x="555" 
d="M270 0q-176 0 -176 172v578h398v-47h-347v-281h316v-47h-316v-207q0 -121 121 -121h226v-47h-222zM133 984h31l125 -129l125 129h31v-13l-125 -143h-62l-125 141v15z" />
    <glyph glyph-name="ecaron" unicode="&#x11b;" horiz-adv-x="500" 
d="M262 -8q-97 0 -150 53t-53 150v149q0 96 58.5 153.5t152.5 57.5q79 0 129 -39.5t50 -113.5q0 -70 -46 -107t-122 -37h-176v-63q0 -76 40.5 -118t116.5 -42q68 0 148 39h8v-39q-65 -43 -156 -43zM105 344v-43h180q117 0 117 101q0 54 -36.5 82t-95.5 28q-79 0 -122 -44.5
t-43 -123.5zM98 781h31l125 -129l125 129h31v-13l-125 -143h-62l-125 141v15z" />
    <glyph glyph-name="Gcircumflex" unicode="&#x11c;" horiz-adv-x="660" 
d="M375 0q-154 0 -237 86t-83 242v94q0 153 88.5 244.5t239.5 91.5q117 0 199 -35v-43h-8q-97 31 -191 31q-131 0 -204.5 -76.5t-73.5 -212.5v-94q0 -133 69.5 -207t200.5 -74h31q69 0 125 23v278h-172v47h223v-356q-30 -14 -82.5 -26.5t-93.5 -12.5h-31zM209 828v16
l125 140h62l125 -142v-14h-31l-125 129l-125 -129h-31z" />
    <glyph glyph-name="gcircumflex" unicode="&#x11d;" horiz-adv-x="551" 
d="M90 -188v43h113q104 0 155.5 57.5t51.5 165.5v16l-19 -12q-86 -51 -161 -51q-83 0 -127 50.5t-44 137.5v74q0 119 75 186.5t190 67.5h133v-465q0 -131 -65 -200.5t-193 -69.5h-109zM391 125l19 12v367h-90q-98 0 -156.5 -54.5t-58.5 -152.5v-78q0 -145 129 -145
q72 0 157 51zM131 625v16l125 140h62l125 -142v-14h-31l-125 129l-125 -129h-31z" />
    <glyph glyph-name="Gbreve" unicode="&#x11e;" horiz-adv-x="660" 
d="M375 0q-154 0 -237 86t-83 242v94q0 153 88.5 244.5t239.5 91.5q117 0 199 -35v-43h-8q-97 31 -191 31q-131 0 -204.5 -76.5t-73.5 -212.5v-94q0 -133 69.5 -207t200.5 -74h31q69 0 125 23v278h-172v47h223v-356q-30 -14 -82.5 -26.5t-93.5 -12.5h-31zM365 828
q-72 0 -112 41t-40 100h31q0 -44 34.5 -73t86.5 -29q53 0 87 29t34 73h32q0 -59 -40 -100t-113 -41z" />
    <glyph glyph-name="gbreve" unicode="&#x11f;" horiz-adv-x="551" 
d="M90 -188v43h113q104 0 155.5 57.5t51.5 165.5v16l-19 -12q-86 -51 -161 -51q-83 0 -127 50.5t-44 137.5v74q0 119 75 186.5t190 67.5h133v-465q0 -131 -65 -200.5t-193 -69.5h-109zM391 125l19 12v367h-90q-98 0 -156.5 -54.5t-58.5 -152.5v-78q0 -145 129 -145
q72 0 157 51zM287 625q-72 0 -112 40.5t-40 100.5h31q0 -44 34.5 -73t86.5 -29t86.5 29t34.5 73h31q0 -60 -39.5 -100.5t-112.5 -40.5z" />
    <glyph glyph-name="Gdotaccent" unicode="&#x120;" horiz-adv-x="660" 
d="M375 0q-154 0 -237 86t-83 242v94q0 153 88.5 244.5t239.5 91.5q117 0 199 -35v-43h-8q-97 31 -191 31q-131 0 -204.5 -76.5t-73.5 -212.5v-94q0 -133 69.5 -207t200.5 -74h31q69 0 125 23v278h-172v47h223v-356q-30 -14 -82.5 -26.5t-93.5 -12.5h-31zM330 828v94h55v-94
h-55z" />
    <glyph glyph-name="gdotaccent" unicode="&#x121;" horiz-adv-x="551" 
d="M90 -188v43h113q104 0 155.5 57.5t51.5 165.5v16l-19 -12q-86 -51 -161 -51q-83 0 -127 50.5t-44 137.5v74q0 119 75 186.5t190 67.5h133v-465q0 -131 -65 -200.5t-193 -69.5h-109zM391 125l19 12v367h-90q-98 0 -156.5 -54.5t-58.5 -152.5v-78q0 -145 129 -145
q72 0 157 51zM264 625v94h54v-94h-54z" />
    <glyph glyph-name="Gcommaaccent" unicode="&#x122;" horiz-adv-x="660" 
d="M375 0q-154 0 -237 86t-83 242v94q0 153 88.5 244.5t239.5 91.5q117 0 199 -35v-43h-8q-97 31 -191 31q-131 0 -204.5 -76.5t-73.5 -212.5v-94q0 -133 69.5 -207t200.5 -74h31q69 0 125 23v278h-172v47h223v-356q-30 -14 -82.5 -26.5t-93.5 -12.5h-31zM289 -195l43 156
h47v-47l-63 -109h-27z" />
    <glyph glyph-name="gcommaaccent" unicode="&#x123;" horiz-adv-x="551" 
d="M90 -188v43h113q104 0 155.5 57.5t51.5 165.5v16l-19 -12q-86 -51 -161 -51q-83 0 -127 50.5t-44 137.5v74q0 119 75 186.5t190 67.5h133v-465q0 -131 -65 -200.5t-193 -69.5h-109zM391 125l19 12v367h-90q-98 0 -156.5 -54.5t-58.5 -152.5v-78q0 -145 129 -145
q72 0 157 51zM344 750l-43 -156h-47v47l62 109h28z" />
    <glyph glyph-name="Hcircumflex" unicode="&#x124;" horiz-adv-x="687" 
d="M94 0v750h51v-328h398v328h51v-750h-51v375h-398v-375h-51zM187 828v16l125 140h63l125 -142v-14h-31l-125 129l-125 -129h-32z" />
    <glyph glyph-name="hcircumflex" unicode="&#x125;" horiz-adv-x="578" 
d="M438 0v391q0 56 -24 88.5t-74 32.5q-27 0 -60 -19t-51 -35.5t-49 -47.5l-39 -39v-371h-47v750h47v-324l39 39q90 90 164 90q140 0 140 -164v-391h-46zM-39 828v16l125 140h62l125 -142v-14h-31l-125 129l-125 -129h-31z" />
    <glyph glyph-name="Hbar" unicode="&#x126;" horiz-adv-x="687" 
d="M31 594v47h63v109h51v-109h398v109h51v-109h62v-47h-62v-594h-51v375h-398v-375h-51v594h-63zM145 594v-172h398v172h-398z" />
    <glyph glyph-name="hbar" unicode="&#x127;" horiz-adv-x="578" 
d="M438 0v391q0 56 -24 88.5t-74 32.5q-27 0 -60 -19t-51 -35.5t-49 -47.5l-39 -39v-371h-47v660h-67v35h67v55h47v-55h125v-35h-125v-234l39 39q90 90 164 90q140 0 140 -164v-391h-46z" />
    <glyph glyph-name="Itilde" unicode="&#x128;" horiz-adv-x="238" 
d="M94 0v750h51v-750h-51zM-53 828v39q45 78 98 78q30 0 81.5 -39t66.5 -39q18 0 36.5 14t28 27t25.5 37h8v-39q-46 -78 -98 -78q-27 0 -79.5 39t-68.5 39q-17 0 -34 -12.5t-27 -25t-25 -34.5q-3 -4 -4 -6h-8z" />
    <glyph glyph-name="itilde" unicode="&#x129;" horiz-adv-x="258" 
d="M117 0v504h-101v43h148v-547h-47zM-51 625v39q46 78 98 78q30 0 81.5 -39t66.5 -39q18 0 36.5 14t28 27t25.5 37h8v-39q-46 -78 -98 -78q-27 0 -79.5 39t-68.5 39q-18 0 -36.5 -14t-28 -27t-25.5 -37h-8z" />
    <glyph glyph-name="Imacron" unicode="&#x12a;" horiz-adv-x="238" 
d="M94 0v750h51v-750h-51zM-6 828v39h250v-39h-250z" />
    <glyph glyph-name="imacron" unicode="&#x12b;" horiz-adv-x="258" 
d="M117 0v504h-101v43h148v-547h-47zM-12 625v39h250v-39h-250z" />
    <glyph glyph-name="Ibreve" unicode="&#x12c;" horiz-adv-x="238" 
d="M94 0v750h51v-750h-51zM119 828q-72 0 -112 41t-40 100h31q0 -44 34.5 -73t86.5 -29t86.5 29t34.5 73h31q0 -59 -39.5 -100t-112.5 -41z" />
    <glyph glyph-name="ibreve" unicode="&#x12d;" horiz-adv-x="258" 
d="M117 0v504h-101v43h148v-547h-47zM121 625q-72 0 -112 40.5t-40 100.5h31q0 -44 34.5 -73t86.5 -29t86.5 29t34.5 73h31q0 -60 -39.5 -100.5t-112.5 -40.5z" />
    <glyph glyph-name="Iogonek" unicode="&#x12e;" horiz-adv-x="238" 
d="M94 0v750h51v-750h-51zM242 -188h-105q-43 0 -68.5 21.5t-25.5 61.5q0 23 18 46.5t44 35.5h24v-12q-20 -10 -35.5 -28t-15.5 -35q0 -50 56 -50h108v-40z" />
    <glyph glyph-name="iogonek" unicode="&#x12f;" horiz-adv-x="258" 
d="M164 672h-47v78h47v-78zM117 0v504h-101v43h148v-547h-47zM264 -188h-106q-42 0 -68 21.5t-26 61.5q0 23 18 46.5t45 35.5h23v-12q-19 -10 -34.5 -28t-15.5 -35q0 -50 55 -50h109v-40z" />
    <glyph glyph-name="Idotaccent" unicode="&#x130;" horiz-adv-x="238" 
d="M94 0v750h51v-750h-51zM92 828v94h54v-94h-54z" />
    <glyph glyph-name="dotlessi" unicode="&#x131;" horiz-adv-x="258" 
d="M117 0v504h-101v43h148v-547h-47z" />
    <glyph glyph-name="IJ" unicode="&#x132;" horiz-adv-x="633" 
d="M94 0v750h51v-750h-51zM270 0v47h82q70 0 103 45t33 123v488h-203v47h254v-531q0 -100 -48.5 -159.5t-142.5 -59.5h-78z" />
    <glyph glyph-name="ij" unicode="&#x133;" horiz-adv-x="508" 
d="M187 -188v43h24q84 0 120 49.5t36 142.5v457h-101v43h148v-484q0 -122 -47 -186.5t-156 -64.5h-24zM117 0v504h-101v43h148v-547h-47zM367 672v78h47v-78h-47zM164 672h-47v78h47v-78z" />
    <glyph glyph-name="Jcircumflex" unicode="&#x134;" horiz-adv-x="426" 
d="M47 0v47h98q70 0 103 45t33 123v488h-203v47h254v-531q0 -100 -48.5 -159.5t-142.5 -59.5h-94zM53 828v16l125 140h62l125 -142v-14h-31l-125 129l-125 -129h-31z" />
    <glyph glyph-name="jcircumflex" unicode="&#x135;" horiz-adv-x="266" 
d="M-55 -188v43h24q84 0 120 49.5t36 142.5v457h-102v43h149v-484q0 -122 -47 -186.5t-156 -64.5h-24zM-35 625v16l125 140h62l125 -142v-14h-31l-125 129l-125 -129h-31z" />
    <glyph glyph-name="Kcommaaccent" unicode="&#x136;" horiz-adv-x="562" 
d="M94 0v750h51v-336h46l297 336h51v-8l-309 -347l317 -387v-8h-59l-300 367h-43v-367h-51zM209 -195l43 156h47v-47l-63 -109h-27z" />
    <glyph glyph-name="kcommaaccent" unicode="&#x137;" horiz-adv-x="473" 
d="M94 0v750h47v-430h62l188 227h47v-8l-200 -238l211 -293v-8h-51l-199 277h-58v-277h-47zM176 -195l43 156h47v-47l-63 -109h-27z" />
    <glyph glyph-name="Lacute" unicode="&#x139;" horiz-adv-x="492" 
d="M270 0q-176 0 -176 172v578h51v-582q0 -121 121 -121h211v-47h-207zM115 828v16l98 140h62v-15l-136 -141h-24z" />
    <glyph glyph-name="lacute" unicode="&#x13a;" horiz-adv-x="242" 
d="M102 0v707h-102v43h148v-750h-46zM41 820v16l98 141h62v-16l-137 -141h-23z" />
    <glyph glyph-name="Lcommaaccent" unicode="&#x13b;" horiz-adv-x="492" 
d="M270 0q-176 0 -176 172v578h51v-582q0 -121 121 -121h211v-47h-207zM201 -195l43 156h47v-47l-62 -109h-28z" />
    <glyph glyph-name="lcommaaccent" unicode="&#x13c;" horiz-adv-x="242" 
d="M102 0v707h-102v43h148v-750h-46zM57 -195l43 156h46v-47l-62 -109h-27z" />
    <glyph glyph-name="Lcaron" unicode="&#x13d;" horiz-adv-x="492" 
d="M270 0q-176 0 -176 172v578h51v-582q0 -121 121 -121h211v-47h-207zM277 594l43 156h47v-47l-62 -109h-28z" />
    <glyph glyph-name="lcaron" unicode="&#x13e;" horiz-adv-x="242" 
d="M102 0v707h-102v43h148v-750h-46zM203 594l43 156h47v-47l-63 -109h-27z" />
    <glyph glyph-name="Ldot" unicode="&#x13f;" horiz-adv-x="492" 
d="M270 0q-176 0 -176 172v578h51v-582q0 -121 121 -121h211v-47h-207zM285 375v94h55v-94h-55z" />
    <glyph glyph-name="ldot" unicode="&#x140;" horiz-adv-x="238" 
d="M102 0v707h-102v43h148v-750h-46zM211 375v94h55v-94h-55z" />
    <glyph glyph-name="Lslash" unicode="&#x141;" horiz-adv-x="516" 
d="M367 503l-222 -122v-213q0 -121 121 -121h211v-47h-207q-176 0 -176 172v181l-67 -38h-7v43l74 41v351h51v-322l214 118h8v-43z" />
    <glyph glyph-name="lslash" unicode="&#x142;" horiz-adv-x="242" 
d="M227 504l-79 -70v-434h-46v393l-79 -69h-7v47l86 76v260h-102v43h148v-262l71 63h8v-47z" />
    <glyph glyph-name="Nacute" unicode="&#x143;" horiz-adv-x="668" 
d="M94 0v750h39l410 -641v641h51v-750h-39l-410 641v-641h-51zM258 828v16l97 140h63v-15l-137 -141h-23z" />
    <glyph glyph-name="nacute" unicode="&#x144;" horiz-adv-x="578" 
d="M94 0v547h47v-121l39 39q90 90 164 90q140 0 140 -164v-391h-47v391q0 121 -97 121q-27 0 -60 -19t-51 -35.5t-49 -47.5l-39 -39v-371h-47zM209 625v16l98 140h62v-15l-137 -141h-23z" />
    <glyph glyph-name="Ncommaaccent" unicode="&#x145;" horiz-adv-x="668" 
d="M94 0v750h39l410 -641v641h51v-750h-39l-410 641v-641h-51zM270 -195l42 156h47v-47l-62 -109h-27z" />
    <glyph glyph-name="ncommaaccent" unicode="&#x146;" horiz-adv-x="578" 
d="M94 0v547h47v-121l39 39q90 90 164 90q140 0 140 -164v-391h-47v391q0 121 -97 121q-27 0 -60 -19t-51 -35.5t-49 -47.5l-39 -39v-371h-47zM225 -195l43 156h46v-47l-62 -109h-27z" />
    <glyph glyph-name="Ncaron" unicode="&#x147;" horiz-adv-x="668" 
d="M94 0v750h39l410 -641v641h51v-750h-39l-410 641v-641h-51zM182 984h31l125 -129l125 129h31v-13l-125 -143h-62l-125 141v15z" />
    <glyph glyph-name="ncaron" unicode="&#x148;" horiz-adv-x="578" 
d="M94 0v547h47v-121l39 39q90 90 164 90q140 0 140 -164v-391h-47v391q0 121 -97 121q-27 0 -60 -19t-51 -35.5t-49 -47.5l-39 -39v-371h-47zM133 781h31l125 -129l125 129h31v-13l-125 -143h-62l-125 141v15z" />
    <glyph glyph-name="napostrophe" unicode="&#x149;" horiz-adv-x="578" 
d="M94 0v547h47v-121l39 39q90 90 164 90q140 0 140 -164v-391h-47v391q0 121 -97 121q-27 0 -60 -19t-51 -35.5t-49 -47.5l-39 -39v-371h-47zM37 594l43 156h47v-47l-63 -109h-27z" />
    <glyph glyph-name="Eng" unicode="&#x14a;" horiz-adv-x="687" 
d="M309 -219v47h97q70 0 103.5 45t33.5 123v22l-398 623v-641h-51v750h39l410 -641v641h51v-750q0 -100 -49 -159.5t-143 -59.5h-93z" />
    <glyph glyph-name="eng" unicode="&#x14b;" horiz-adv-x="578" 
d="M258 -188v43h23q84 0 120 49.5t36 142.5v344q0 121 -97 121q-27 0 -60 -19t-51 -35.5t-49 -47.5l-39 -39v-371h-47v547h47v-121l39 39q90 90 164 90q140 0 140 -164v-328q0 -122 -47 -186.5t-156 -64.5h-23z" />
    <glyph glyph-name="Omacron" unicode="&#x14c;" horiz-adv-x="687" 
d="M344 -8q-100 0 -166.5 49.5t-94.5 129.5t-28 188v32q0 108 28 188t94.5 129.5t166.5 49.5t166.5 -49.5t94.5 -129.5t28 -188v-32q0 -108 -28 -188t-94.5 -129.5t-166.5 -49.5zM344 39q238 0 238 320v32q0 320 -238 320q-239 0 -239 -320v-32q0 -320 239 -320zM219 828v39
h250v-39h-250z" />
    <glyph glyph-name="omacron" unicode="&#x14d;" horiz-adv-x="555" 
d="M277 -8q-114 0 -168 78t-54 207q0 127 55 202.5t167 75.5q115 0 169 -74.5t54 -203.5q0 -130 -53.5 -207.5t-169.5 -77.5zM277 35q93 0 134.5 66.5t41.5 175.5q0 235 -176 235q-175 0 -175 -235q0 -109 41 -175.5t134 -66.5zM152 625v39h250v-39h-250z" />
    <glyph glyph-name="Obreve" unicode="&#x14e;" horiz-adv-x="687" 
d="M344 -8q-100 0 -166.5 49.5t-94.5 129.5t-28 188v32q0 108 28 188t94.5 129.5t166.5 49.5t166.5 -49.5t94.5 -129.5t28 -188v-32q0 -108 -28 -188t-94.5 -129.5t-166.5 -49.5zM344 39q238 0 238 320v32q0 320 -238 320q-239 0 -239 -320v-32q0 -320 239 -320zM344 828
q-73 0 -113 41t-40 100h32q0 -44 34 -73t87 -29q52 0 86.5 29t34.5 73h31q0 -59 -40 -100t-112 -41z" />
    <glyph glyph-name="obreve" unicode="&#x14f;" horiz-adv-x="555" 
d="M277 -8q-114 0 -168 78t-54 207q0 127 55 202.5t167 75.5q115 0 169 -74.5t54 -203.5q0 -130 -53.5 -207.5t-169.5 -77.5zM277 35q93 0 134.5 66.5t41.5 175.5q0 235 -176 235q-175 0 -175 -235q0 -109 41 -175.5t134 -66.5zM277 625q-72 0 -112 40.5t-40 100.5h31
q0 -44 34.5 -73t86.5 -29q53 0 87 29t34 73h32q0 -60 -40 -100.5t-113 -40.5z" />
    <glyph glyph-name="Ohungarumlaut" unicode="&#x150;" horiz-adv-x="687" 
d="M344 -8q-100 0 -166.5 49.5t-94.5 129.5t-28 188v32q0 108 28 188t94.5 129.5t166.5 49.5t166.5 -49.5t94.5 -129.5t28 -188v-32q0 -108 -28 -188t-94.5 -129.5t-166.5 -49.5zM344 39q238 0 238 320v32q0 320 -238 320q-239 0 -239 -320v-32q0 -320 239 -320zM348 828v16
l97 140h63v-15l-137 -141h-23zM180 828v16l97 140h63v-15l-137 -141h-23z" />
    <glyph glyph-name="ohungarumlaut" unicode="&#x151;" horiz-adv-x="555" 
d="M277 -8q-114 0 -168 78t-54 207q0 127 55 202.5t167 75.5q115 0 169 -74.5t54 -203.5q0 -130 -53.5 -207.5t-169.5 -77.5zM277 35q93 0 134.5 66.5t41.5 175.5q0 235 -176 235q-175 0 -175 -235q0 -109 41 -175.5t134 -66.5zM281 625v16l98 140h62v-15l-136 -141h-24z
M113 625v16l98 140h62v-15l-136 -141h-24z" />
    <glyph glyph-name="OE" unicode="&#x152;" horiz-adv-x="961" 
d="M898 0h-554q-148 0 -218.5 97t-70.5 262v32q0 165 70.5 262t218.5 97h554v-47h-347v-281h316v-47h-316v-328h347v-47zM105 359q0 -312 239 -312h156v656h-156q-239 0 -239 -312v-32z" />
    <glyph glyph-name="oe" unicode="&#x153;" horiz-adv-x="887" 
d="M656 -8q-148 0 -190 117q-50 -117 -189 -117q-114 0 -168 78t-54 207q0 127 55 202.5t167 75.5q142 0 192 -121q23 57 74.5 89t120.5 32q80 0 130 -39.5t50 -113.5q0 -70 -46 -107t-122 -37h-176v-63q0 -76 40.5 -118t115.5 -42q69 0 149 39h8v-39q-67 -43 -157 -43z
M277 35q91 0 132.5 63.5t43.5 168.5v20q-4 225 -176 225q-175 0 -175 -235q0 -109 41 -175.5t134 -66.5zM500 344v-43h180q117 0 117 101q0 54 -37 82t-96 28q-78 0 -121 -44.5t-43 -123.5z" />
    <glyph glyph-name="Racute" unicode="&#x154;" horiz-adv-x="609" 
d="M94 0v750h234q107 0 155 -52.5t48 -162.5q0 -73 -38.5 -128t-105.5 -75q50 -47 102 -152t73 -172v-8h-54q-14 57 -69 163t-103 149h-191v-312h-51zM145 359h171q75 0 119.5 49.5t44.5 126.5q0 86 -32.5 127t-111.5 41h-191v-344zM225 828v16l97 140h63v-15l-137 -141h-23
z" />
    <glyph glyph-name="racute" unicode="&#x155;" horiz-adv-x="355" 
d="M94 0v547h47v-113l43 50q52 63 121 63h35v-47h-35q-56 0 -117 -70l-47 -55v-375h-47zM113 625v16l98 140h62v-15l-136 -141h-24z" />
    <glyph glyph-name="Rcommaaccent" unicode="&#x156;" horiz-adv-x="609" 
d="M94 0v750h234q107 0 155 -52.5t48 -162.5q0 -73 -38.5 -128t-105.5 -75q50 -47 102 -152t73 -172v-8h-54q-14 57 -69 163t-103 149h-191v-312h-51zM145 359h171q75 0 119.5 49.5t44.5 126.5q0 86 -32.5 127t-111.5 41h-191v-344zM232 -195l43 156h47v-47l-62 -109h-28z
" />
    <glyph glyph-name="rcommaaccent" unicode="&#x157;" horiz-adv-x="355" 
d="M94 0v547h47v-113l43 50q52 63 121 63h35v-47h-35q-56 0 -117 -70l-47 -55v-375h-47zM51 -195l43 156h47v-47l-63 -109h-27z" />
    <glyph glyph-name="Rcaron" unicode="&#x158;" horiz-adv-x="609" 
d="M94 0v750h234q107 0 155 -52.5t48 -162.5q0 -73 -38.5 -128t-105.5 -75q50 -47 102 -152t73 -172v-8h-54q-14 57 -69 163t-103 149h-191v-312h-51zM145 359h171q75 0 119.5 49.5t44.5 126.5q0 86 -32.5 127t-111.5 41h-191v-344zM125 984h31l125 -129l125 129h31v-13
l-125 -143h-62l-125 141v15z" />
    <glyph glyph-name="rcaron" unicode="&#x159;" horiz-adv-x="355" 
d="M94 0v547h47v-113l43 50q52 63 121 63h35v-47h-35q-56 0 -117 -70l-47 -55v-375h-47zM53 781h31l125 -129l125 129h31v-13l-125 -143h-62l-125 141v15z" />
    <glyph glyph-name="Sacute" unicode="&#x15a;" horiz-adv-x="551" 
d="M238 -8q-99 0 -187 31v51h8q31 -12 87 -23.5t92 -11.5h35q78 0 125 42.5t47 117.5q0 116 -109 149l-109 31q-83 23 -123.5 64.5t-40.5 119.5q0 95 64.5 145t169.5 50h12q93 0 168 -28v-46h-8q-86 27 -160 27h-16q-83 0 -131.5 -36.5t-48.5 -111.5q0 -101 106 -129
l109 -32q82 -23 125 -70t43 -133q0 -98 -62.5 -152.5t-163.5 -54.5h-32zM219 828v16l97 140h63v-15l-137 -141h-23z" />
    <glyph glyph-name="sacute" unicode="&#x15b;" horiz-adv-x="484" 
d="M223 -8q-89 0 -153 20v47h8q64 -24 145 -24q69 0 110.5 30t41.5 91q0 41 -21 62.5t-73 35.5l-78 19q-68 18 -100.5 45.5t-32.5 91.5q0 72 58 108.5t142 36.5q67 0 128 -16v-43h-7q-64 16 -121 16q-67 0 -110 -24t-43 -78q0 -39 20.5 -59t65.5 -31l78 -19q65 -17 103 -48
t38 -97q0 -79 -55.5 -121.5t-143.5 -42.5zM186 625v16l97 140h63v-15l-137 -141h-23z" />
    <glyph glyph-name="Scircumflex" unicode="&#x15c;" horiz-adv-x="551" 
d="M238 -8q-99 0 -187 31v51h8q31 -12 87 -23.5t92 -11.5h35q78 0 125 42.5t47 117.5q0 116 -109 149l-109 31q-83 23 -123.5 64.5t-40.5 119.5q0 95 64.5 145t169.5 50h12q93 0 168 -28v-46h-8q-86 27 -160 27h-16q-83 0 -131.5 -36.5t-48.5 -111.5q0 -101 106 -129
l109 -32q82 -23 125 -70t43 -133q0 -98 -62.5 -152.5t-163.5 -54.5h-32zM127 828v16l125 140h62l125 -142v-14h-31l-125 129l-125 -129h-31z" />
    <glyph glyph-name="scircumflex" unicode="&#x15d;" horiz-adv-x="484" 
d="M223 -8q-89 0 -153 20v47h8q64 -24 145 -24q69 0 110.5 30t41.5 91q0 41 -21 62.5t-73 35.5l-78 19q-68 18 -100.5 45.5t-32.5 91.5q0 72 58 108.5t142 36.5q67 0 128 -16v-43h-7q-64 16 -121 16q-67 0 -110 -24t-43 -78q0 -39 20.5 -59t65.5 -31l78 -19q65 -17 103 -48
t38 -97q0 -79 -55.5 -121.5t-143.5 -42.5zM94 625v16l125 140h62l125 -142v-14h-31l-125 129l-125 -129h-31z" />
    <glyph glyph-name="Scedilla" unicode="&#x15e;" horiz-adv-x="551" 
d="M238 -8q-99 0 -187 31v51h8q31 -12 87 -23.5t92 -11.5h35q78 0 125 42.5t47 117.5q0 116 -109 149l-109 31q-83 23 -123.5 64.5t-40.5 119.5q0 95 64.5 145t169.5 50h12q93 0 168 -28v-46h-8q-86 27 -160 27h-16q-83 0 -131.5 -36.5t-48.5 -111.5q0 -101 106 -129
l109 -32q82 -23 125 -70t43 -133q0 -98 -62.5 -152.5t-163.5 -54.5h-32zM117 -188v40h110q54 0 54 50q0 17 -15.5 35t-35.5 28v12h24q26 -12 44 -35.5t18 -46.5q0 -38 -26 -60.5t-67 -22.5h-106z" />
    <glyph glyph-name="scedilla" unicode="&#x15f;" horiz-adv-x="484" 
d="M223 -8q-89 0 -153 20v47h8q64 -24 145 -24q69 0 110.5 30t41.5 91q0 41 -21 62.5t-73 35.5l-78 19q-68 18 -100.5 45.5t-32.5 91.5q0 72 58 108.5t142 36.5q67 0 128 -16v-43h-7q-64 16 -121 16q-67 0 -110 -24t-43 -78q0 -39 20.5 -59t65.5 -31l78 -19q65 -17 103 -48
t38 -97q0 -79 -55.5 -121.5t-143.5 -42.5zM96 -188v40h109q55 0 55 50q0 17 -16 35t-35 28v12h23q27 -12 45 -35.5t18 -46.5q0 -38 -26 -60.5t-68 -22.5h-105z" />
    <glyph glyph-name="Scaron" unicode="&#x160;" horiz-adv-x="551" 
d="M238 -8q-99 0 -187 31v51h8q31 -12 87 -23.5t92 -11.5h35q78 0 125 42.5t47 117.5q0 116 -109 149l-109 31q-83 23 -123.5 64.5t-40.5 119.5q0 95 64.5 145t169.5 50h12q93 0 168 -28v-46h-8q-86 27 -160 27h-16q-83 0 -131.5 -36.5t-48.5 -111.5q0 -101 106 -129
l109 -32q82 -23 125 -70t43 -133q0 -98 -62.5 -152.5t-163.5 -54.5h-32zM123 984h31l125 -129l125 129h32v-13l-125 -143h-63l-125 141v15z" />
    <glyph glyph-name="scaron" unicode="&#x161;" horiz-adv-x="484" 
d="M223 -8q-89 0 -153 20v47h8q64 -24 145 -24q69 0 110.5 30t41.5 91q0 41 -21 62.5t-73 35.5l-78 19q-68 18 -100.5 45.5t-32.5 91.5q0 72 58 108.5t142 36.5q67 0 128 -16v-43h-7q-64 16 -121 16q-67 0 -110 -24t-43 -78q0 -39 20.5 -59t65.5 -31l78 -19q65 -17 103 -48
t38 -97q0 -79 -55.5 -121.5t-143.5 -42.5zM90 781h31l125 -129l125 129h31v-13l-125 -143h-62l-125 141v15z" />
    <glyph glyph-name="Tcommaaccent" unicode="&#x162;" horiz-adv-x="566" 
d="M266 0v703h-250v47h535v-47h-235v-703h-50zM164 -188v40h109q55 0 55 50q0 17 -15.5 35t-35.5 28v12h24q26 -12 44 -35.5t18 -46.5q0 -38 -26 -60.5t-67 -22.5h-106z" />
    <glyph glyph-name="tcommaaccent" unicode="&#x163;" horiz-adv-x="383" 
d="M352 0h-55q-91 0 -127.5 45.5t-36.5 142.5v316h-102v43h102v125h47v-125h156v-43h-156v-332q0 -68 29 -98.5t96 -30.5h47v-43zM127 -188v40h109q55 0 55 50q0 17 -15.5 35t-35.5 28v12h24q26 -12 44 -35.5t18 -46.5q0 -38 -26 -60.5t-68 -22.5h-105z" />
    <glyph glyph-name="Tcaron" unicode="&#x164;" horiz-adv-x="566" 
d="M266 0v703h-250v47h535v-47h-235v-703h-50zM135 984h31l125 -129l125 129h31v-13l-125 -143h-62l-125 141v15z" />
    <glyph glyph-name="tcaron" unicode="&#x165;" horiz-adv-x="383" 
d="M352 0h-55q-91 0 -127.5 45.5t-36.5 142.5v316h-102v43h102v125h47v-125h156v-43h-156v-332q0 -68 29 -98.5t96 -30.5h47v-43zM238 594l43 156h47v-47l-62 -109h-28z" />
    <glyph glyph-name="Tbar" unicode="&#x166;" horiz-adv-x="566" 
d="M504 406h-188v-406h-50v406h-204v47h204v250h-250v47h535v-47h-235v-250h188v-47z" />
    <glyph glyph-name="tbar" unicode="&#x167;" horiz-adv-x="406" 
d="M336 293h-156v-121q0 -68 29 -98.5t96 -30.5h47v-43h-55q-91 0 -127.5 45.5t-36.5 142.5v105h-102v43h102v168h-102v43h102v125h47v-125h156v-43h-156v-168h156v-43z" />
    <glyph glyph-name="Utilde" unicode="&#x168;" horiz-adv-x="672" 
d="M336 -8q-131 0 -190.5 62.5t-59.5 195.5v500h51v-516q0 -96 51 -145.5t148 -49.5t148 49.5t51 145.5v516h51v-500q0 -130 -61 -194t-189 -64zM164 828v39q45 78 98 78q29 0 81 -39t67 -39q18 0 36.5 14t28 27t25.5 37h8v-39q-46 -78 -98 -78q-27 0 -79.5 39t-68.5 39
q-18 0 -36.5 -14t-28 -27t-25.5 -37h-8z" />
    <glyph glyph-name="utilde" unicode="&#x169;" horiz-adv-x="574" 
d="M230 -8q-140 0 -140 164v391h47v-391q0 -121 97 -121q27 0 60 19t52 36t49 47l39 39v371h46v-547h-46v121l-39 -39q-25 -24 -40.5 -37.5t-53 -33t-71.5 -19.5zM115 625v39q46 78 98 78q30 0 81.5 -39t66.5 -39q18 0 36.5 14t28 27t25.5 37h8v-39q-46 -78 -98 -78
q-27 0 -79.5 39t-68.5 39q-18 0 -36.5 -14t-28 -27t-25.5 -37h-8z" />
    <glyph glyph-name="Umacron" unicode="&#x16a;" horiz-adv-x="672" 
d="M336 -8q-131 0 -190.5 62.5t-59.5 195.5v500h51v-516q0 -96 51 -145.5t148 -49.5t148 49.5t51 145.5v516h51v-500q0 -130 -61 -194t-189 -64zM211 828v39h250v-39h-250z" />
    <glyph glyph-name="umacron" unicode="&#x16b;" horiz-adv-x="574" 
d="M230 -8q-140 0 -140 164v391h47v-391q0 -121 97 -121q27 0 60 19t52 36t49 47l39 39v371h46v-547h-46v121l-39 -39q-25 -24 -40.5 -37.5t-53 -33t-71.5 -19.5zM162 625v39h250v-39h-250z" />
    <glyph glyph-name="Ubreve" unicode="&#x16c;" horiz-adv-x="672" 
d="M336 -8q-131 0 -190.5 62.5t-59.5 195.5v500h51v-516q0 -96 51 -145.5t148 -49.5t148 49.5t51 145.5v516h51v-500q0 -130 -61 -194t-189 -64zM336 828q-73 0 -112.5 41t-39.5 100h31q0 -44 34.5 -73t86.5 -29t86.5 29t34.5 73h31q0 -59 -40 -100t-112 -41z" />
    <glyph glyph-name="ubreve" unicode="&#x16d;" horiz-adv-x="574" 
d="M230 -8q-140 0 -140 164v391h47v-391q0 -121 97 -121q27 0 60 19t52 36t49 47l39 39v371h46v-547h-46v121l-39 -39q-25 -24 -40.5 -37.5t-53 -33t-71.5 -19.5zM287 625q-72 0 -112 40.5t-40 100.5h31q0 -44 34.5 -73t86.5 -29t86.5 29t34.5 73h31q0 -60 -39.5 -100.5
t-112.5 -40.5z" />
    <glyph glyph-name="Uring" unicode="&#x16e;" horiz-adv-x="672" 
d="M336 -8q-131 0 -190.5 62.5t-59.5 195.5v500h51v-516q0 -96 51 -145.5t148 -49.5t148 49.5t51 145.5v516h51v-500q0 -130 -61 -194t-189 -64zM336 828q-53 0 -83 29.5t-30 72.5t30 72t83 29t83 -29t30 -72t-30 -72.5t-83 -29.5zM336 852q40 0 61 21t21 57t-21 57t-61 21
t-61 -21t-21 -57t21 -57t61 -21z" />
    <glyph glyph-name="uring" unicode="&#x16f;" horiz-adv-x="574" 
d="M230 -8q-140 0 -140 164v391h47v-391q0 -121 97 -121q27 0 60 19t52 36t49 47l39 39v371h46v-547h-46v121l-39 -39q-25 -24 -40.5 -37.5t-53 -33t-71.5 -19.5zM287 625q-53 0 -83 29.5t-30 72.5t30 72t83 29t83 -29t30 -72t-30 -72.5t-83 -29.5zM287 648q40 0 61 21.5
t21 57.5t-21 57t-61 21t-61 -21t-21 -57t21 -57.5t61 -21.5z" />
    <glyph glyph-name="Uhungarumlaut" unicode="&#x170;" horiz-adv-x="672" 
d="M336 -8q-131 0 -190.5 62.5t-59.5 195.5v500h51v-516q0 -96 51 -145.5t148 -49.5t148 49.5t51 145.5v516h51v-500q0 -130 -61 -194t-189 -64zM352 828v16l97 140h63v-15l-137 -141h-23zM184 828v16l97 140h63v-15l-137 -141h-23z" />
    <glyph glyph-name="uhungarumlaut" unicode="&#x171;" horiz-adv-x="574" 
d="M230 -8q-140 0 -140 164v391h47v-391q0 -121 97 -121q27 0 60 19t52 36t49 47l39 39v371h46v-547h-46v121l-39 -39q-25 -24 -40.5 -37.5t-53 -33t-71.5 -19.5zM303 625v16l97 140h63v-15l-137 -141h-23zM135 625v16l97 140h63v-15l-137 -141h-23z" />
    <glyph glyph-name="Uogonek" unicode="&#x172;" horiz-adv-x="672" 
d="M336 -8q-131 0 -190.5 62.5t-59.5 195.5v500h51v-516q0 -96 51 -145.5t148 -49.5t148 49.5t51 145.5v516h51v-500q0 -130 -61 -194t-189 -64zM465 -188h-106q-42 0 -67.5 21.5t-25.5 61.5q0 23 18 46.5t44 35.5h24v-12q-20 -10 -35.5 -28t-15.5 -35q0 -50 55 -50h109v-40
z" />
    <glyph glyph-name="uogonek" unicode="&#x173;" horiz-adv-x="574" 
d="M230 -8q-140 0 -140 164v391h47v-391q0 -121 97 -121q27 0 60 19t52 36t49 47l39 39v371h46v-547h-46v121l-39 -39q-25 -24 -40.5 -37.5t-53 -33t-71.5 -19.5zM582 -188h-105q-43 0 -68.5 21.5t-25.5 61.5q0 23 18 46.5t44 35.5h24v-12q-20 -10 -35.5 -28t-15.5 -35
q0 -50 56 -50h108v-40z" />
    <glyph glyph-name="Wcircumflex" unicode="&#x174;" horiz-adv-x="875" 
d="M219 0q-62 149 -115 353t-73 389v8h51q64 -443 168 -703q124 304 164 703h47q50 -433 160 -703q110 276 172 703h51v-8q-27 -196 -79 -399.5t-113 -342.5h-62q-89 189 -152 539q-66 -359 -157 -539h-62zM281 828v16l125 140h63l125 -142v-14h-32l-125 129l-125 -129h-31z
" />
    <glyph glyph-name="wcircumflex" unicode="&#x175;" horiz-adv-x="727" 
d="M191 0q-51 56 -93.5 160t-42.5 231v156h47v-156q0 -108 38 -209.5t79 -142.5q25 34 48 74.5t48 117.5t25 152v164h47v-164q0 -75 25 -152t48 -117.5t48 -74.5q41 41 79 142.5t38 209.5v156h47v-156q0 -126 -44 -230t-97 -161h-43q-32 32 -71.5 107t-53.5 139
q-13 -63 -53 -138.5t-72 -107.5h-47zM207 625v16l125 140h63l125 -142v-14h-32l-125 129l-125 -129h-31z" />
    <glyph glyph-name="Ycircumflex" unicode="&#x176;" horiz-adv-x="562" 
d="M258 0v309l-235 433v8h51l211 -387l207 387h51v-8l-234 -433v-309h-51zM125 828v16l125 140h62l125 -142v-14h-31l-125 129l-125 -129h-31z" />
    <glyph glyph-name="ycircumflex" unicode="&#x177;" horiz-adv-x="574" 
d="M137 -188v43h101q108 0 152 54t44 169v47l-12 -8q-30 -20 -77 -37t-91 -17q-80 0 -122 47.5t-42 131.5v305h47v-305q0 -69 29.5 -103t95.5 -34q39 0 84.5 17.5t75.5 37.5l12 8v379h46v-461q0 -137 -57 -205.5t-185 -68.5h-101zM131 625v16l125 140h62l125 -142v-14h-31
l-125 129l-125 -129h-31z" />
    <glyph glyph-name="Ydieresis" unicode="&#x178;" horiz-adv-x="562" 
d="M258 0v309l-235 433v8h51l211 -387l207 387h51v-8l-234 -433v-309h-51zM375 828v94h55v-94h-55zM133 828v94h54v-94h-54z" />
    <glyph glyph-name="Zacute" unicode="&#x179;" horiz-adv-x="574" 
d="M47 0v39q95 127 226 337.5t176 326.5h-390v47h449v-39q-61 -150 -183 -345t-212 -319h414v-47h-480zM207 828v16l98 140h62v-15l-137 -141h-23z" />
    <glyph glyph-name="zacute" unicode="&#x17a;" horiz-adv-x="500" 
d="M55 0v35q84 105 180 244.5t144 224.5h-309v43h368v-35q-36 -70 -145.5 -228.5t-175.5 -240.5h328v-43h-390zM170 625v16l98 140h62v-15l-137 -141h-23z" />
    <glyph glyph-name="Zdotaccent" unicode="&#x17b;" horiz-adv-x="574" 
d="M47 0v39q95 127 226 337.5t176 326.5h-390v47h449v-39q-61 -150 -183 -345t-212 -319h414v-47h-480zM252 828v94h55v-94h-55z" />
    <glyph glyph-name="zdotaccent" unicode="&#x17c;" horiz-adv-x="500" 
d="M55 0v35q84 105 180 244.5t144 224.5h-309v43h368v-35q-36 -70 -145.5 -228.5t-175.5 -240.5h328v-43h-390zM223 625v94h54v-94h-54z" />
    <glyph glyph-name="Zcaron" unicode="&#x17d;" horiz-adv-x="574" 
d="M47 0v39q95 127 226 337.5t176 326.5h-390v47h449v-39q-61 -150 -183 -345t-212 -319h414v-47h-480zM131 984h31l125 -129l125 129h31v-13l-125 -143h-62l-125 141v15z" />
    <glyph glyph-name="zcaron" unicode="&#x17e;" horiz-adv-x="500" 
d="M55 0v35q84 105 180 244.5t144 224.5h-309v43h368v-35q-36 -70 -145.5 -228.5t-175.5 -240.5h328v-43h-390zM94 781h31l125 -129l125 129h31v-13l-125 -143h-62l-125 141v15z" />
    <glyph glyph-name="longs" unicode="&#x17f;" horiz-adv-x="324" 
d="M133 0v504h-102v43h102v39q0 79 42.5 121.5t121.5 42.5h55v-43h-55q-61 0 -89 -29.5t-28 -91.5v-586h-47z" />
    <glyph glyph-name="florin" unicode="&#x192;" 
d="M31 -188v47h94q75 0 110 40t35 132v344h-133v47h133v109q0 105 49.5 162t149.5 57h82v-47h-82q-79 0 -114 -37.5t-35 -134.5v-109h180v-47h-180v-344q0 -100 -47 -159.5t-148 -59.5h-94z" />
    <glyph glyph-name="Scommaaccent" unicode="&#x218;" horiz-adv-x="551" 
d="M238 -8q-99 0 -187 31v51h8q31 -12 87 -23.5t92 -11.5h35q78 0 125 42.5t47 117.5q0 116 -109 149l-109 31q-83 23 -123.5 64.5t-40.5 119.5q0 95 64.5 145t169.5 50h12q93 0 168 -28v-46h-8q-86 27 -160 27h-16q-83 0 -131.5 -36.5t-48.5 -111.5q0 -101 106 -129
l109 -32q82 -23 125 -70t43 -133q0 -98 -62.5 -152.5t-163.5 -54.5h-32zM187 -195l43 156h47v-47l-62 -109h-28z" />
    <glyph glyph-name="scommaaccent" unicode="&#x219;" horiz-adv-x="484" 
d="M223 -8q-89 0 -153 20v47h8q64 -24 145 -24q69 0 110.5 30t41.5 91q0 41 -21 62.5t-73 35.5l-78 19q-68 18 -100.5 45.5t-32.5 91.5q0 72 58 108.5t142 36.5q67 0 128 -16v-43h-7q-64 16 -121 16q-67 0 -110 -24t-43 -78q0 -39 20.5 -59t65.5 -31l78 -19q65 -17 103 -48
t38 -97q0 -79 -55.5 -121.5t-143.5 -42.5zM158 -195l43 156h47v-47l-62 -109h-28z" />
    <glyph glyph-name="uni021A" unicode="&#x21a;" horiz-adv-x="566" 
d="M266 0v703h-250v47h535v-47h-235v-703h-50zM223 -195l43 156h46v-47l-62 -109h-27z" />
    <glyph glyph-name="uni021B" unicode="&#x21b;" horiz-adv-x="383" 
d="M352 0h-55q-91 0 -127.5 45.5t-36.5 142.5v316h-102v43h102v125h47v-125h156v-43h-156v-332q0 -68 29 -98.5t96 -30.5h47v-43zM146 -195l43 156h47v-47l-62 -109h-28z" />
    <glyph glyph-name="circumflex" unicode="&#x2c6;" horiz-adv-x="312" 
d="M0 625v16l125 140h62l125 -142v-14h-31l-125 129l-125 -129h-31z" />
    <glyph glyph-name="caron" unicode="&#x2c7;" horiz-adv-x="312" 
d="M0 781h31l125 -129l125 129h31v-13l-125 -143h-62l-125 141v15z" />
    <glyph glyph-name="breve" unicode="&#x2d8;" horiz-adv-x="305" 
d="M152 625q-72 0 -112 40.5t-40 100.5h31q0 -44 34.5 -73t86.5 -29q53 0 87 29t34 73h32q0 -60 -40 -100.5t-113 -40.5z" />
    <glyph glyph-name="dotaccent" unicode="&#x2d9;" horiz-adv-x="55" 
d="M0 625v94h55v-94h-55z" />
    <glyph glyph-name="ring" unicode="&#x2da;" horiz-adv-x="227" 
d="M113 625q-53 0 -83 29.5t-30 72.5t30 72t83 29t83.5 -29t30.5 -72t-30.5 -72.5t-83.5 -29.5zM113 648q40 0 61 21.5t21 57.5t-21 57t-61 21q-39 0 -60.5 -21.5t-21.5 -56.5q0 -36 21 -57.5t61 -21.5z" />
    <glyph glyph-name="ogonek" unicode="&#x2db;" horiz-adv-x="199" 
d="M199 -188h-105q-43 0 -68.5 21.5t-25.5 61.5q0 23 18 46.5t44 35.5h24v-12q-20 -10 -35.5 -28t-15.5 -35q0 -50 56 -50h108v-40z" />
    <glyph glyph-name="tilde" unicode="&#x2dc;" horiz-adv-x="344" 
d="M0 625v39q46 78 98 78q29 0 81 -39t67 -39q17 0 34 12.5t27 25t25 34.5q3 4 4 6h8v-39q-46 -78 -98 -78q-28 0 -80 39t-68 39q-18 0 -36.5 -14t-28 -27t-25.5 -37h-8z" />
    <glyph glyph-name="hungarumlaut" unicode="&#x2dd;" horiz-adv-x="328" 
d="M168 625v16l98 140h62v-15l-137 -141h-23zM0 625v16l98 140h62v-15l-137 -141h-23z" />
    <glyph glyph-name="Delta" unicode="&#x394;" horiz-adv-x="680" 
d="M39 0v23l274 727h62l273 -727v-23h-609zM98 39h492l-246 672z" />
    <glyph glyph-name="Delta" unicode="&#x2206;" horiz-adv-x="680" 
d="M39 0v23l274 727h62l273 -727v-23h-609zM98 39h492l-246 672z" />
    <glyph glyph-name="Omega" unicode="&#x3a9;" horiz-adv-x="691" 
d="M47 0v55h156q-75 75 -115.5 149t-40.5 179q0 155 85.5 249.5t211.5 94.5q127 0 214 -95t87 -249q0 -106 -40.5 -181.5t-116.5 -146.5h157v-55h-211v43q65 54 108.5 148t43.5 192q0 138 -70 219.5t-172 81.5q-101 0 -170 -81.5t-69 -219.5q0 -98 44 -191.5t109 -148.5v-43
h-211z" />
    <glyph glyph-name="Omega" unicode="&#x2126;" horiz-adv-x="691" 
d="M47 0v55h156q-75 75 -115.5 149t-40.5 179q0 155 85.5 249.5t211.5 94.5q127 0 214 -95t87 -249q0 -106 -40.5 -181.5t-116.5 -146.5h157v-55h-211v43q65 54 108.5 148t43.5 192q0 138 -70 219.5t-172 81.5q-101 0 -170 -81.5t-69 -219.5q0 -98 44 -191.5t109 -148.5v-43
h-211z" />
    <glyph glyph-name="pi" unicode="&#x3c0;" horiz-adv-x="578" 
d="M94 0v547h390v-547h-47v504h-296v-504h-47z" />
    <glyph glyph-name="endash" unicode="&#x2013;" horiz-adv-x="500" 
d="M31 348v39h438v-39h-438z" />
    <glyph glyph-name="emdash" unicode="&#x2014;" horiz-adv-x="1000" 
d="M31 348v39h938v-39h-938z" />
    <glyph glyph-name="quoteleft" unicode="&#x2018;" horiz-adv-x="219" 
d="M191 750l-58 -219h-55v47l82 172h31z" />
    <glyph glyph-name="quoteright" unicode="&#x2019;" horiz-adv-x="219" 
d="M27 531l59 219h55v-47l-82 -172h-32z" />
    <glyph glyph-name="quotesinglbase" unicode="&#x201a;" horiz-adv-x="273" 
d="M51 -125l58 219h55v-47l-82 -172h-31z" />
    <glyph glyph-name="quotedblleft" unicode="&#x201c;" horiz-adv-x="375" 
d="M191 750l-58 -219h-55v47l82 172h31zM348 750l-59 -219h-55v47l82 172h32z" />
    <glyph glyph-name="quotedblright" unicode="&#x201d;" horiz-adv-x="375" 
d="M184 531l58 219h55v-47l-82 -172h-31zM27 531l59 219h55v-47l-82 -172h-32z" />
    <glyph glyph-name="quotedblbase" unicode="&#x201e;" horiz-adv-x="375" 
d="M199 -125l59 219h54v-47l-82 -172h-31zM43 -125l59 219h54v-47l-82 -172h-31z" />
    <glyph glyph-name="dagger" unicode="&#x2020;" horiz-adv-x="477" 
d="M215 -125v629h-153v43h153v203h47v-203h152v-43h-152v-629h-47z" />
    <glyph glyph-name="daggerdbl" unicode="&#x2021;" horiz-adv-x="477" 
d="M262 78v-203h-47v203h-152v43h152v383h-152v43h152v203h47v-203h152v-43h-152v-383h152v-43h-152z" />
    <glyph glyph-name="bullet" unicode="&#x2022;" horiz-adv-x="500" 
d="M249 125q-76 0 -131.5 49.5t-55.5 138.5t55.5 138t131.5 49t132 -49t56 -138t-56 -138.5t-132 -49.5z" />
    <glyph glyph-name="ellipsis" unicode="&#x2026;" horiz-adv-x="832" 
d="M109 0v94h55v-94h-55zM387 0v94h54v-94h-54zM668 0v94h55v-94h-55z" />
    <glyph glyph-name="perthousand" unicode="&#x2030;" horiz-adv-x="1320" 
d="M243 320q-167 0 -167 217q0 218 167 218q166 0 166 -218q0 -217 -166 -217zM695 -4q-167 0 -167 217q0 218 167 218q82 0 124 -56t42 -162q0 -217 -166 -217zM1103 -4q-167 0 -167 217q0 218 167 218q81 0 123.5 -56t42.5 -162q0 -217 -166 -217zM1103 36q58 0 87.5 42
t29.5 135t-29.5 135t-87.5 42q-60 0 -90 -42t-30 -135q0 -177 120 -177zM695 36q59 0 88 41.5t29 135.5t-29 135.5t-88 41.5t-89 -42t-30 -135q0 -177 119 -177zM243 360q58 0 87.5 42t29.5 135t-29.5 135t-87.5 42q-59 0 -89 -42t-30 -135q0 -177 119 -177zM266 0v12
l375 738h31v-12l-375 -738h-31z" />
    <glyph glyph-name="guilsinglleft" unicode="&#x2039;" horiz-adv-x="336" 
d="M273 152l-211 160v47l211 161h8v-43l-172 -141l172 -141v-43h-8z" />
    <glyph glyph-name="guilsinglright" unicode="&#x203a;" horiz-adv-x="336" 
d="M62 520l211 -161v-47l-211 -160h-7v43l172 141l-172 141v43h7z" />
    <glyph glyph-name="fraction" unicode="&#x2044;" horiz-adv-x="8" 
d="M-203 0v12l375 738h31v-12l-375 -738h-31z" />
    <glyph glyph-name="fraction" unicode="&#x2215;" horiz-adv-x="8" 
d="M-203 0v12l375 738h31v-12l-375 -738h-31z" />
    <glyph glyph-name="uni2070" unicode="&#x2070;" horiz-adv-x="412" 
d="M207 320q-167 0 -167 217q0 218 167 218q82 0 124 -55.5t42 -162.5q0 -217 -166 -217zM207 360q58 0 87.5 42t29.5 135t-29.5 135t-87.5 42q-59 0 -89 -42t-30 -135q0 -177 119 -177z" />
    <glyph glyph-name="uni2074" unicode="&#x2074;" horiz-adv-x="412" 
d="M267 324v108h-238v31q107 124 130 287h48q-28 -162 -115 -277h175v135h47v-135h64v-41h-64v-108h-47z" />
    <glyph glyph-name="uni2075" unicode="&#x2075;" horiz-adv-x="412" 
d="M60 324v41h122q123 0 123 102q0 84 -121 84h-114v199h270v-41h-222v-117h66q86 0 127.5 -33.5t41.5 -91.5q0 -59 -42.5 -101t-128.5 -42h-122z" />
    <glyph glyph-name="uni2076" unicode="&#x2076;" horiz-adv-x="412" 
d="M207 320q-150 0 -150 138v133q0 67 50.5 113t149.5 46h78v-41h-83q-72 0 -109.5 -33t-37.5 -96v-17q62 29 109 29q72 0 110.5 -33.5t38.5 -98.5q0 -58 -39 -99t-117 -41zM207 360q108 0 108 100q0 91 -101 91q-53 0 -109 -30v-65q0 -96 102 -96z" />
    <glyph glyph-name="uni2077" unicode="&#x2077;" horiz-adv-x="412" 
d="M147 324v33q0 99 48.5 192t114.5 160h-272v41h338v-30q-180 -178 -180 -352v-44h-49z" />
    <glyph glyph-name="uni2078" unicode="&#x2078;" horiz-adv-x="412" 
d="M193 320q-66 0 -104.5 29t-38.5 91q0 59 69 100l18 11q-73 28 -73 95q0 56 41 82.5t96 26.5h18q56 0 94 -25.5t38 -80.5q0 -25 -9.5 -43t-19.5 -26.5t-34 -24.5l-17 -10q42 -17 65 -41t23 -64q0 -57 -41.5 -88.5t-103.5 -31.5h-21zM198 360h11q103 0 103 80q0 47 -61 70
l-66 23l-30 -16q-17 -10 -27 -17.5t-20 -24t-10 -35.5q0 -80 100 -80zM227 562l18 11q29 18 43 34t14 42q0 65 -88 65h-7q-94 0 -94 -68q0 -41 56 -63q37 -14 58 -21z" />
    <glyph glyph-name="uni2079" unicode="&#x2079;" horiz-adv-x="412" 
d="M83 324v41h80q145 0 145 118v29q-61 -26 -107 -26q-71 0 -108.5 34.5t-37.5 97.5q0 59 38 98t114 39q148 0 148 -137v-135q0 -68 -45.5 -113.5t-143.5 -45.5h-83zM201 527q57 0 107 27v66q0 94 -101 94q-104 0 -104 -96q0 -91 98 -91z" />
    <glyph glyph-name="uni2080" unicode="&#x2080;" horiz-adv-x="412" 
d="M207 -4q-167 0 -167 217q0 218 167 218q81 0 123.5 -56t42.5 -162q0 -217 -166 -217zM207 36q58 0 87.5 42t29.5 135t-29.5 135t-87.5 42q-59 0 -89 -42t-30 -135q0 -177 119 -177z" />
    <glyph glyph-name="uni2081" unicode="&#x2081;" horiz-adv-x="412" 
d="M208 0v374l-121 -45h-16v40l158 57h27v-426h-48z" />
    <glyph glyph-name="uni2082" unicode="&#x2082;" horiz-adv-x="412" 
d="M57 0v51q0 100 117 147l48 20q88 35 88 92q0 75 -112 75h-121v41h121q160 0 160 -116q0 -82 -129 -132l-47 -19q-79 -29 -79 -108v-10h257v-41h-303z" />
    <glyph glyph-name="uni2083" unicode="&#x2083;" horiz-adv-x="412" 
d="M57 0v41h133q60 0 92.5 23.5t32.5 69.5q0 78 -111 78h-89v41h125q60 29 60 72q0 60 -102 60h-128v41h128q72 0 111 -26t39 -75q0 -54 -57 -86q72 -29 72 -105q0 -60 -47 -97t-126 -37h-133z" />
    <glyph glyph-name="uni2084" unicode="&#x2084;" horiz-adv-x="412" 
d="M267 0v107h-238v32q107 124 130 287h48q-27 -160 -115 -278h175v136h47v-136h64v-41h-64v-107h-47z" />
    <glyph glyph-name="uni2085" unicode="&#x2085;" horiz-adv-x="412" 
d="M60 0v41h122q123 0 123 102q0 84 -121 84h-114v199h270v-41h-222v-117h66q86 0 127.5 -33.5t41.5 -91.5q0 -59 -42.5 -101t-128.5 -42h-122z" />
    <glyph glyph-name="uni2086" unicode="&#x2086;" horiz-adv-x="412" 
d="M207 -4q-150 0 -150 138v133q0 67 50.5 113t149.5 46h78v-41h-83q-72 0 -109.5 -33t-37.5 -96v-17q62 29 109 29q72 0 110.5 -33.5t38.5 -98.5q0 -59 -39 -99.5t-117 -40.5zM207 36q108 0 108 100q0 91 -101 91q-55 0 -109 -31v-64q0 -96 102 -96z" />
    <glyph glyph-name="uni2087" unicode="&#x2087;" horiz-adv-x="412" 
d="M147 0v33q0 99 48.5 192t114.5 160h-272v41h338v-30q-180 -178 -180 -352v-44h-49z" />
    <glyph glyph-name="uni2088" unicode="&#x2088;" horiz-adv-x="412" 
d="M193 -4q-143 0 -143 120q0 57 69 100l18 11q-73 28 -73 95q0 56 41 82.5t96 26.5h18q56 0 94 -26t38 -80q0 -19 -3.5 -33t-15.5 -26t-17.5 -16.5t-26.5 -19.5l-17 -9q42 -17 65 -41t23 -64q0 -57 -41.5 -88.5t-103.5 -31.5h-21zM198 36h11q103 0 103 80q0 47 -61 70
l-66 23l-30 -17q-57 -32 -57 -76q0 -80 100 -80zM227 238l18 11q29 18 43 34t14 42q0 65 -88 65h-7q-94 0 -94 -68q0 -43 56 -63z" />
    <glyph glyph-name="uni2089" unicode="&#x2089;" horiz-adv-x="412" 
d="M83 0v41h80q145 0 145 118v28q-64 -25 -107 -25q-71 0 -108.5 34.5t-37.5 97.5q0 59 38 98t114 39q148 0 148 -137v-135q0 -68 -45.5 -113.5t-143.5 -45.5h-83zM201 203q55 0 107 26v67q0 94 -101 94q-104 0 -104 -96q0 -91 98 -91z" />
    <glyph glyph-name="Euro" unicode="&#x20ac;" 
d="M148 437h-117v47h117v16q0 118 67.5 188t175.5 70h23q39 0 82.5 -9.5t65.5 -21.5v-43h-7q-63 27 -141 27h-23q-88 0 -140 -51t-52 -160v-16h270v-47h-270v-121h270v-46h-270v-20q0 -109 48 -160t144 -51h31q63 0 133 31h7v-43q-76 -35 -140 -35h-31q-112 0 -177.5 63
t-65.5 195v20h-117v46h117v121z" />
    <glyph glyph-name="trademark" unicode="&#x2122;" horiz-adv-x="703" 
d="M336 355v395h27l125 -187l121 187h24v-395h-51v270l-86 -133h-19l-90 133v-270h-51zM129 355v352h-98v43h246v-43h-97v-352h-51z" />
    <glyph glyph-name="partialdiff" unicode="&#x2202;" 
d="M312 -8q-78 0 -131.5 36t-76 89t-22.5 117q0 111 56.5 169t162.5 58q88 0 179 -64v56q0 121 -61 185.5t-177 64.5h-117v47h109q75 0 133.5 -23.5t93 -63t52.5 -88t18 -102.5v-243q0 -238 -219 -238zM312 39q168 0 168 188v124q-90 63 -179 63q-168 0 -168 -180
q0 -102 48.5 -148.5t130.5 -46.5z" />
    <glyph glyph-name="product" unicode="&#x220f;" horiz-adv-x="687" 
d="M94 0v750h500v-750h-51v703h-398v-703h-51z" />
    <glyph glyph-name="summation" unicode="&#x2211;" horiz-adv-x="559" 
d="M62 47l204 328l-204 328v47h430v-47h-367l199 -316v-24l-199 -316h367v-47h-430v47z" />
    <glyph glyph-name="minus" unicode="&#x2212;" 
d="M94 348v39h437v-39h-437z" />
    <glyph glyph-name="radical" unicode="&#x221a;" 
d="M219 0l-199 539v8h39l183 -496l246 668h137v-39h-113l-254 -680h-39z" />
    <glyph glyph-name="infinity" unicode="&#x221e;" horiz-adv-x="598" 
d="M133 188q-60 0 -88.5 45t-28.5 111t28.5 111t88.5 45q35 0 61.5 -17.5t67.5 -68.5l31 -39q40 51 86 88t82 37q60 0 88.5 -44t28.5 -112q0 -66 -28.5 -111t-88.5 -45q-36 0 -66.5 18.5t-66.5 63.5l-35 43q-93 -125 -160 -125zM461 234q70 0 70 110q0 109 -70 109
q-26 0 -67.5 -31.5t-77.5 -73.5l39 -47q57 -67 106 -67zM133 234q56 0 137 106l-36 43q-58 70 -101 70q-70 0 -70 -109q0 -52 20 -81t50 -29z" />
    <glyph glyph-name="integral" unicode="&#x222b;" horiz-adv-x="344" 
d="M-47 -188v40h86q50 0 74 32t24 85v625q0 74 35 115t101 41h86v-39h-86q-50 0 -73.5 -32t-23.5 -85v-625q0 -74 -35 -115.5t-102 -41.5h-86z" />
    <glyph glyph-name="approxequal" unicode="&#x2248;" 
d="M94 391v35q16 29 47 49.5t70 20.5q37 0 109 -33t98 -33q39 0 63 16t42 50h8v-35q-16 -29 -47 -49.5t-70 -20.5q-37 0 -109 33t-98 33q-64 0 -105 -66h-8zM94 172v35q16 29 47 49.5t70 20.5q37 0 109 -33t98 -33q39 0 63 16t42 50h8v-35q-16 -29 -47 -49.5t-70 -20.5
q-37 0 -109 33t-98 33q-64 0 -105 -66h-8z" />
    <glyph glyph-name="notequal" unicode="&#x2260;" 
d="M203 94v11l46 133h-155v39h168l61 180h-229v39h243l50 145h35v-12l-46 -133h155v-39h-169l-61 -180h230v-39h-244l-49 -144h-35z" />
    <glyph glyph-name="lessequal" unicode="&#x2264;" 
d="M523 125l-429 223v39l429 222h8v-43l-383 -199l383 -199v-43h-8zM94 -39v39h437v-39h-437z" />
    <glyph glyph-name="greaterequal" unicode="&#x2265;" 
d="M94 125v43l383 199l-383 199v43h8l429 -222v-39l-429 -223h-8zM94 -39v39h437v-39h-437z" />
    <glyph glyph-name="lozenge" unicode="&#x25ca;" horiz-adv-x="703" 
d="M352 0l-321 375l321 375l320 -375zM352 82l253 293l-253 293l-254 -293z" />
    <glyph glyph-name="dotlessj" unicode="&#xf6be;" horiz-adv-x="266" 
d="M-55 -188v43h24q84 0 120 49.5t36 142.5v457h-102v43h149v-484q0 -122 -47 -186.5t-156 -64.5h-24z" />
    <glyph glyph-name="commaaccent" unicode="&#xf6c3;" horiz-adv-x="180" 
d="M39 -195l43 156h47v-47l-63 -109h-27z" />
    <glyph glyph-name="a.superior" horiz-adv-x="474" 
d="M171 323q-58 0 -90 36.5t-32 93.5v103q0 89 63.5 142.5t165.5 53.5h115v-423h-43v90q-9 -6 -28 -23q-28 -24 -42 -35t-45.5 -24.5t-63.5 -13.5zM178 360q54 0 126 64l46 43v248h-76q-84 0 -132.5 -41.5t-48.5 -114.5v-106q0 -42 21 -67.5t64 -25.5z" />
    <glyph glyph-name="b.superior" horiz-adv-x="474" 
d="M79 329v578h44v-246q24 21 27 24q29 25 42.5 35.5t45 24t64.5 13.5q58 0 89.5 -36.5t31.5 -94.5v-102q0 -89 -63 -142.5t-165 -53.5h-116zM169 655l-46 -41v-248h75q85 0 133.5 41.5t48.5 114.5v105q0 42 -21.5 68t-63.5 26q-33 0 -61.5 -17t-64.5 -49z" />
    <glyph glyph-name="c.superior" horiz-adv-x="403" 
d="M224 323q-83 0 -129 41.5t-46 115.5v114q0 75 49 119.5t132 44.5q84 0 130 -28v-90h-44v66q-38 15 -86 15q-66 0 -101.5 -33.5t-35.5 -93.5v-114q0 -57 34 -88.5t97 -31.5q32 0 69 9.5t58 21.5h9v-34q-20 -14 -60 -24t-76 -10z" />
    <glyph glyph-name="d.superior" horiz-adv-x="474" 
d="M171 323q-58 0 -90 36.5t-32 93.5v103q0 89 63.5 142.5t165.5 53.5h72v155h43v-578h-43v90q-9 -6 -28 -23q-28 -24 -42 -35t-45.5 -24.5t-63.5 -13.5zM178 360q54 0 126 64l46 43v248h-76q-84 0 -132.5 -41.5t-48.5 -114.5v-106q0 -42 21 -67.5t64 -25.5z" />
    <glyph glyph-name="e.superior" horiz-adv-x="430" 
d="M224 323q-83 0 -129 41.5t-46 115.5v114q0 74 50 119t131 45q70 0 113.5 -31t43.5 -88q0 -55 -40 -84t-106 -29h-148v-46q0 -57 34 -88.5t97 -31.5q62 0 127 31h9v-34q-55 -34 -136 -34zM93 594v-31h151q99 0 99 76q0 40 -31.5 61t-81.5 21q-66 0 -101.5 -33.5
t-35.5 -93.5z" />
    <glyph glyph-name="f.superior" horiz-adv-x="289" 
d="M112 329v386h-87v37h87v27q0 61 37 94.5t105 33.5h50v-37h-50q-52 0 -75 -22t-23 -69v-27h134v-37h-134v-386h-44z" />
    <glyph glyph-name="g.superior" horiz-adv-x="474" 
d="M75 185v38h100q175 0 175 169v7q-2 -1 -7 -3t-7 -3q-71 -39 -138 -39q-72 0 -110.5 38.5t-38.5 105.5v58q0 92 64.5 144t164.5 52h115v-357q0 -102 -56 -156t-166 -54h-96zM334 429l16 8v278h-76q-82 0 -131.5 -41t-49.5 -115v-61q0 -107 107 -107q62 0 134 38z" />
    <glyph glyph-name="h.superior" horiz-adv-x="497" 
d="M374 329v301q0 91 -83 91q-52 0 -136 -77q-2 -2 -32 -29v-286h-44v578h44v-247q12 12 30 28q80 70 142 70q122 0 122 -128v-301h-43z" />
    <glyph glyph-name="i.superior" horiz-adv-x="222" 
d="M142 844h-43v63h43v-63zM99 329v386h-87v37h130v-423h-43z" />
    <glyph glyph-name="j.superior" horiz-adv-x="229" 
d="M148 844h-43v63h43v-63zM-49 185v38h22q71 0 101.5 36.5t30.5 107.5v348h-86v37h129v-372q0 -95 -40 -145t-135 -50h-22z" />
    <glyph glyph-name="k.superior" horiz-adv-x="406" 
d="M79 329v578h44v-328h52l160 173h43v-8l-172 -182l181 -224v-9h-46l-171 213h-47v-213h-44z" />
    <glyph glyph-name="l.superior" horiz-adv-x="208" 
d="M85 329v541h-87v37h131v-578h-44z" />
    <glyph glyph-name="m.superior" horiz-adv-x="793" 
d="M80 329v423h43v-92q12 12 30 28q80 70 142 70q108 0 121 -99l32 29q77 70 142 70q121 0 121 -128v-301h-44v301q0 91 -81 91q-54 0 -136 -77q-22 -20 -32 -30v-285h-44v301q0 91 -83 91q-52 0 -136 -77q-2 -2 -32 -29v-286h-43z" />
    <glyph glyph-name="n.superior" horiz-adv-x="497" 
d="M79 329v422h44v-92q12 12 30 28q80 70 142 70q122 0 122 -127v-301h-44v301q0 90 -82 90q-54 0 -136 -77l-32 -28v-286h-44z" />
    <glyph glyph-name="o.superior" horiz-adv-x="477" 
d="M237 323q-98 0 -145 60.5t-47 160.5q0 98 48 156t144 58q100 0 146.5 -57.5t46.5 -156.5q0 -101 -46 -161t-147 -60zM237 360q149 0 149 184q0 177 -149 177q-148 0 -148 -177q0 -184 148 -184z" />
    <glyph glyph-name="p.superior" horiz-adv-x="474" 
d="M79 185v566h44v-91q24 21 27 24q29 25 42.5 35.5t45 24t64.5 13.5q58 0 89.5 -36.5t31.5 -93.5v-103q0 -89 -63.5 -142t-165.5 -53h-71v-144h-44zM169 654l-46 -40v-248h74q85 0 133.5 41t48.5 114v106q0 42 -21 67.5t-63 25.5q-54 0 -126 -66z" />
    <glyph glyph-name="q.superior" horiz-adv-x="474" 
d="M349 185v234q-13 -12 -28 -23q-27 -24 -41.5 -35.5t-45.5 -24.5t-63 -13q-58 0 -90 36.5t-32 93.5v102q0 89 63.5 142.5t165.5 53.5h115v-566h-44zM177 360q58 0 126 64l46 43v247h-75q-84 0 -132.5 -41.5t-48.5 -114.5v-105q0 -42 21 -67.5t63 -25.5z" />
    <glyph glyph-name="r.superior" horiz-adv-x="306" 
d="M79 329v422h44v-85q6 7 19 20.5t14 15.5q45 49 105 49h31v-40h-31q-48 0 -99 -53l-39 -39v-290h-44z" />
    <glyph glyph-name="s.superior" horiz-adv-x="417" 
d="M190 323q-76 0 -131 15v40h9q55 -18 122 -18q59 0 93.5 22t34.5 68q0 30 -18 46.5t-59 25.5l-67 16q-60 14 -87.5 35t-27.5 71q0 56 50 84.5t121 28.5q60 0 113 -12v-37h-9q-54 12 -104 12q-55 0 -91 -18t-36 -58q0 -28 17.5 -42.5t53.5 -23.5l67 -16q56 -12 89 -36.5
t33 -75.5q0 -61 -48 -94t-125 -33z" />
    <glyph glyph-name="t.superior" horiz-adv-x="329" 
d="M254 329q-79 0 -110.5 35.5t-31.5 111.5v238h-87v37h87v96h43v-96h134v-37h-134v-251q0 -51 24.5 -74t81.5 -23h42v-37h-49z" />
    <glyph glyph-name="u.superior" horiz-adv-x="494" 
d="M197 323q-122 0 -122 127v301h44v-301q0 -90 81 -90q57 0 136 77l33 29v285h44v-422h-44v90q-14 -13 -31 -26l-8 -7q-8 -7 -10.5 -8.5t-11 -8.5t-13 -10l-13.5 -9t-15.5 -8.5t-16 -7t-17.5 -6.5t-17.5 -3.5t-18.5 -1.5z" />
    <glyph glyph-name="v.superior" horiz-adv-x="417" 
d="M187 329v1q-32 29 -60 64.5t-55 101t-27 134.5v121h44v-121q0 -89 36.5 -157t81.5 -110q45 41 81.5 109.5t36.5 157.5v121h44v-121q0 -170 -145 -301h-37z" />
    <glyph glyph-name="w.superior" 
d="M165 329l-1 1q-44 42 -81 122.5t-37 177.5v121h44v-121q0 -78 31.5 -155t66.5 -111q36 42 68.5 110.5t32.5 149.5v127h45v-127q0 -81 33 -150t69 -110q34 31 65 108t31 158v121h45v-121q0 -97 -38 -176.5t-84 -124.5h-37q-27 24 -60 79.5t-46 103.5q-13 -48 -46.5 -103
t-60.5 -80h-40z" />
    <glyph glyph-name="x.superior" horiz-adv-x="403" 
d="M20 329v9l156 204l-150 200v9h45l131 -175l134 175h47v-9l-155 -200l155 -204v-9h-47l-134 178l-138 -178h-44z" />
    <glyph glyph-name="y.superior" horiz-adv-x="494" 
d="M115 185v38h89q91 0 128 40.5t37 128.5v31q-1 -1 -3.5 -2.5t-3.5 -2.5q-68 -40 -144 -40q-70 0 -106.5 37t-36.5 102v234h44v-234q0 -53 24.5 -78.5t80.5 -25.5q62 0 136 42q6 3 9 5v291h44v-355q0 -104 -49.5 -157.5t-159.5 -53.5h-89z" />
    <glyph glyph-name="z.superior" horiz-adv-x="430" 
d="M45 329v29q72 79 153 184.5t122 171.5h-261v37h318v-30q-30 -52 -122 -171t-151 -184h279v-37h-338z" />
    <glyph glyph-name="zero.numerator" horiz-adv-x="508" 
d="M254 320q-167 0 -167 217q0 218 167 218q82 0 124 -55.5t42 -162.5q0 -217 -166 -217zM254 360q58 0 87.5 42t29.5 135t-29.5 135t-87.5 42q-59 0 -89 -42t-30 -135q0 -177 119 -177z" />
    <glyph glyph-name="one.numerator" horiz-adv-x="508" 
d="M255 324v374q-68 -24 -121 -45h-16v40l157 57h28v-426h-48z" />
    <glyph glyph-name="two.numerator" horiz-adv-x="508" 
d="M104 324v51q0 100 117 147l48 20q87 35 87 92q0 75 -111 75h-121v41h121q160 0 160 -116q0 -83 -130 -132l-46 -19q-80 -30 -80 -108v-10h258v-41h-303z" />
    <glyph glyph-name="three.numerator" horiz-adv-x="508" 
d="M104 324v41h133q59 0 92 23.5t33 69.5q0 78 -111 78h-89v41h125q60 31 60 72q0 60 -102 60h-128v41h128q72 0 111 -26t39 -75q0 -54 -57 -86q72 -29 72 -105q0 -60 -47 -97t-126 -37h-133z" />
    <glyph glyph-name="four.numerator" horiz-adv-x="508" 
d="M313 324v108h-237v31q107 124 130 287h48q-28 -162 -115 -277h174v135h48v-135h64v-41h-64v-108h-48z" />
    <glyph glyph-name="five.numerator" horiz-adv-x="508" 
d="M106 324v41h123q123 0 123 102q0 84 -122 84h-113v199h270v-41h-222v-117h65q86 0 127.5 -33.5t41.5 -91.5q0 -59 -42 -101t-128 -42h-123z" />
    <glyph glyph-name="six.numerator" horiz-adv-x="508" 
d="M254 320q-150 0 -150 138v133q0 67 50.5 113t149.5 46h78v-41h-83q-72 0 -109.5 -33t-37.5 -96v-17q62 29 109 29q72 0 110.5 -33.5t38.5 -98.5q0 -58 -39 -99t-117 -41zM254 360q49 0 78.5 24.5t29.5 75.5q0 91 -101 91q-53 0 -109 -30v-65q0 -96 102 -96z" />
    <glyph glyph-name="seven.numerator" horiz-adv-x="508" 
d="M194 324v33q0 98 48.5 191t113.5 161h-271v41h338v-30q-180 -178 -180 -352v-44h-49z" />
    <glyph glyph-name="eight.numerator" horiz-adv-x="508" 
d="M240 320q-66 0 -104.5 29t-38.5 91q0 59 69 100l18 11q-73 28 -73 95q0 56 41 82.5t96 26.5h18q56 0 93.5 -25.5t37.5 -80.5q0 -25 -9 -43t-19 -26.5t-34 -24.5l-17 -10q42 -17 65 -41t23 -64q0 -57 -41.5 -88.5t-103.5 -31.5h-21zM245 360h11q102 0 102 80q0 48 -60 70
l-67 23l-29 -16q-17 -10 -27 -17.5t-20 -24t-10 -35.5q0 -80 100 -80zM273 562l19 11q29 18 43 34t14 42q0 65 -88 65h-7q-94 0 -94 -68q0 -41 56 -63q25 -11 57 -21z" />
    <glyph glyph-name="nine.numerator" horiz-adv-x="508" 
d="M130 324v41h80q144 0 144 118v29q-59 -26 -106 -26q-71 0 -108.5 34.5t-37.5 97.5q0 59 38 98t114 39q148 0 148 -137v-135q0 -68 -45.5 -113.5t-143.5 -45.5h-83zM248 527q57 0 106 27v66q0 94 -100 94q-105 0 -105 -96q0 -91 99 -91z" />
    <glyph glyph-name="zero.denominator" horiz-adv-x="508" 
d="M254 -4q-167 0 -167 217q0 218 167 218q81 0 123.5 -56t42.5 -162q0 -217 -166 -217zM254 36q58 0 87.5 42t29.5 135t-29.5 135t-87.5 42q-59 0 -89 -42t-30 -135q0 -177 119 -177z" />
    <glyph glyph-name="one.denominator" horiz-adv-x="508" 
d="M255 0v374l-121 -45h-16v40l157 57h28v-426h-48z" />
    <glyph glyph-name="two.denominator" horiz-adv-x="508" 
d="M104 0v51q0 100 117 147l48 20q87 35 87 92q0 75 -111 75h-121v41h121q160 0 160 -116q0 -83 -130 -132l-46 -19q-80 -30 -80 -108v-10h258v-41h-303z" />
    <glyph glyph-name="three.denominator" horiz-adv-x="508" 
d="M104 0v41h133q59 0 92 23.5t33 69.5q0 78 -111 78h-89v41h125q60 29 60 72q0 60 -102 60h-128v41h128q72 0 111 -26t39 -75q0 -54 -57 -86q72 -29 72 -105q0 -60 -47 -97t-126 -37h-133z" />
    <glyph glyph-name="four.denominator" horiz-adv-x="508" 
d="M313 0v107h-237v32q107 124 130 287h48q-27 -160 -115 -278h174v136h48v-136h64v-41h-64v-107h-48z" />
    <glyph glyph-name="five.denominator" horiz-adv-x="508" 
d="M106 0v41h123q123 0 123 102q0 84 -122 84h-113v199h270v-41h-222v-117h65q86 0 127.5 -33.5t41.5 -91.5q0 -59 -42 -101t-128 -42h-123z" />
    <glyph glyph-name="six.denominator" horiz-adv-x="508" 
d="M254 -4q-150 0 -150 138v133q0 67 50.5 113t149.5 46h78v-41h-83q-72 0 -109.5 -33t-37.5 -96v-17q62 29 109 29q72 0 110.5 -33.5t38.5 -98.5q0 -59 -39 -99.5t-117 -40.5zM254 36q108 0 108 100q0 91 -101 91q-55 0 -109 -31v-64q0 -96 102 -96z" />
    <glyph glyph-name="seven.denominator" horiz-adv-x="508" 
d="M194 0v33q0 98 48.5 191t113.5 161h-271v41h338v-30q-180 -178 -180 -352v-44h-49z" />
    <glyph glyph-name="eight.denominator" horiz-adv-x="508" 
d="M240 -4q-143 0 -143 120q0 57 69 100l18 11q-73 28 -73 95q0 56 41 82.5t96 26.5h18q56 0 93.5 -26t37.5 -80q0 -26 -9.5 -44t-18.5 -25.5t-34 -25.5l-17 -9q42 -17 65 -41t23 -64q0 -57 -41.5 -88.5t-103.5 -31.5h-21zM245 36h11q102 0 102 80q0 48 -60 70l-67 23
l-29 -17q-57 -32 -57 -76q0 -80 100 -80zM273 238l19 11q29 18 43 34t14 42q0 65 -88 65h-7q-94 0 -94 -68q0 -43 56 -63z" />
    <glyph glyph-name="nine.denominator" horiz-adv-x="508" 
d="M130 0v41h80q144 0 144 118v28q-61 -25 -106 -25q-71 0 -108.5 34.5t-37.5 97.5q0 59 38 98t114 39q148 0 148 -137v-135q0 -68 -45.5 -113.5t-143.5 -45.5h-83zM248 203q56 0 106 26v67q0 94 -100 94q-105 0 -105 -96q0 -91 99 -91z" />
    <glyph glyph-name="Gcedilla" horiz-adv-x="660" 
d="M375 0q-154 0 -237 86t-83 242v94q0 153 88.5 244.5t239.5 91.5q117 0 199 -35v-43h-8q-97 31 -191 31q-131 0 -204.5 -76.5t-73.5 -212.5v-94q0 -133 69.5 -207t200.5 -74h31q69 0 125 23v278h-172v47h223v-356q-30 -14 -82.5 -26.5t-93.5 -12.5h-31zM289 -195l43 156
h47v-47l-63 -109h-27z" />
    <glyph glyph-name="gcedilla" horiz-adv-x="551" 
d="M90 -188v43h113q104 0 155.5 57.5t51.5 165.5v16l-19 -12q-86 -51 -161 -51q-83 0 -127 50.5t-44 137.5v74q0 119 75 186.5t190 67.5h133v-465q0 -131 -65 -200.5t-193 -69.5h-109zM391 125l19 12v367h-90q-98 0 -156.5 -54.5t-58.5 -152.5v-78q0 -145 129 -145
q72 0 157 51zM355 750l-43 -156h-46v47l62 109h27z" />
    <glyph glyph-name="Kcedilla" horiz-adv-x="562" 
d="M94 0v750h51v-336h46l297 336h51v-8l-309 -347l317 -387v-8h-59l-300 367h-43v-367h-51zM221 -195l43 156h47v-47l-63 -109h-27z" />
    <glyph glyph-name="kcedilla" horiz-adv-x="473" 
d="M94 0v750h47v-430h62l188 227h47v-8l-200 -238l211 -293v-8h-51l-199 277h-58v-277h-47zM176 -195l43 156h47v-47l-63 -109h-27z" />
    <glyph glyph-name="Lcedilla" horiz-adv-x="492" 
d="M270 0q-176 0 -176 172v578h51v-582q0 -121 121 -121h211v-47h-207zM201 -195l43 156h47v-47l-62 -109h-28z" />
    <glyph glyph-name="lcedilla" horiz-adv-x="242" 
d="M102 0v707h-102v43h148v-750h-46zM57 -195l43 156h46v-47l-62 -109h-27z" />
    <glyph glyph-name="Ncedilla" horiz-adv-x="668" 
d="M94 0v750h39l410 -641v641h51v-750h-39l-410 641v-641h-51zM273 -195l43 156h47v-47l-62 -109h-28z" />
    <glyph glyph-name="ncedilla" horiz-adv-x="578" 
d="M94 0v547h47v-121l39 39q90 90 164 90q140 0 140 -164v-391h-47v391q0 121 -97 121q-27 0 -60 -19t-51 -35.5t-49 -47.5l-39 -39v-371h-47zM229 -195l42 156h47v-47l-62 -109h-27z" />
    <glyph glyph-name="Rcedilla" horiz-adv-x="609" 
d="M94 0v750h234q107 0 155 -52.5t48 -162.5q0 -73 -38.5 -128t-105.5 -75q50 -47 102 -152t73 -172v-8h-54q-14 57 -69 163t-103 149h-191v-312h-51zM145 359h171q75 0 119.5 49.5t44.5 126.5q0 86 -32.5 127t-111.5 41h-191v-344zM232 -195l43 156h47v-47l-62 -109h-28z
" />
    <glyph glyph-name="rcedilla" horiz-adv-x="355" 
d="M94 0v547h47v-113l43 50q52 63 121 63h35v-47h-35q-56 0 -117 -70l-47 -55v-375h-47zM51 -195l43 156h47v-47l-63 -109h-27z" />
    <glyph glyph-name="caronquoteleft" horiz-adv-x="180" 
d="M137 750l-43 -156h-47v47l62 109h28z" />
    <glyph glyph-name="caronquoteright" horiz-adv-x="180" 
d="M39 594l43 156h47v-47l-63 -109h-27z" />
    </font>
</defs>
</svg>
